<svg xmlns="http://www.w3.org/2000/svg" width="980" height="320" viewBox="0 0 980 320">
  <defs><marker id="arrow" markerWidth="10" markerHeight="10" refX="6" refY="3" orient="auto"><path d="M0,0 L0,6 L7,3 z" fill="#93c5fd"/></marker></defs>
  <rect width="980" height="320" rx="24" fill="#111827"/>
  <text x="42" y="58" fill="#93c5fd" font-size="26" font-family="Arial, sans-serif">Provider-backed evidence pipeline</text>
  <text x="42" y="88" fill="#9ca3af" font-size="15" font-family="Arial, sans-serif">Sanitized summaries are published; raw provider payloads and full quote rows remain private.</text>
  <path d="M 178 156 L 196 156" stroke="#93c5fd" stroke-width="3" marker-end="url(#arrow)"/><path d="M 332 156 L 350 156" stroke="#93c5fd" stroke-width="3" marker-end="url(#arrow)"/><path d="M 486 156 L 504 156" stroke="#93c5fd" stroke-width="3" marker-end="url(#arrow)"/><path d="M 640 156 L 658 156" stroke="#93c5fd" stroke-width="3" marker-end="url(#arrow)"/><path d="M 794 156 L 812 156" stroke="#93c5fd" stroke-width="3" marker-end="url(#arrow)"/>
  <rect x="42" y="120" width="130" height="72" rx="14" fill="#1f2937" stroke="#374151" stroke-width="2"/><text x="107" y="162" text-anchor="middle" fill="#f9fafb" font-size="15" font-family="Arial, sans-serif">Alpaca/FRED</text><rect x="196" y="120" width="130" height="72" rx="14" fill="#1f2937" stroke="#374151" stroke-width="2"/><text x="261" y="162" text-anchor="middle" fill="#f9fafb" font-size="15" font-family="Arial, sans-serif">Bronze</text><rect x="350" y="120" width="130" height="72" rx="14" fill="#1f2937" stroke="#374151" stroke-width="2"/><text x="415" y="162" text-anchor="middle" fill="#f9fafb" font-size="15" font-family="Arial, sans-serif">Silver</text><rect x="504" y="120" width="130" height="72" rx="14" fill="#1f2937" stroke="#374151" stroke-width="2"/><text x="569" y="162" text-anchor="middle" fill="#f9fafb" font-size="15" font-family="Arial, sans-serif">Gold</text><rect x="658" y="120" width="130" height="72" rx="14" fill="#1f2937" stroke="#374151" stroke-width="2"/><text x="723" y="162" text-anchor="middle" fill="#f9fafb" font-size="15" font-family="Arial, sans-serif">Model-ready</text><rect x="812" y="120" width="130" height="72" rx="14" fill="#1f2937" stroke="#374151" stroke-width="2"/><text x="877" y="162" text-anchor="middle" fill="#f9fafb" font-size="15" font-family="Arial, sans-serif">Heston fit</text>
</svg>
