<?xml version="1.0" encoding="utf-8" standalone="no"?>
<!DOCTYPE svg PUBLIC "-//W3C//DTD SVG 1.1//EN"
  "http://www.w3.org/Graphics/SVG/1.1/DTD/svg11.dtd">
<svg xmlns:xlink="http://www.w3.org/1999/xlink" width="864pt" height="360pt" viewBox="0 0 864 360" xmlns="http://www.w3.org/2000/svg" version="1.1">
 <metadata>
  <rdf:RDF xmlns:dc="http://purl.org/dc/elements/1.1/" xmlns:cc="http://creativecommons.org/ns#" xmlns:rdf="http://www.w3.org/1999/02/22-rdf-syntax-ns#">
   <cc:Work>
    <dc:type rdf:resource="http://purl.org/dc/dcmitype/StillImage"/>
    <dc:date>2026-05-21T10:50:35.762398</dc:date>
    <dc:format>image/svg+xml</dc:format>
    <dc:creator>
     <cc:Agent>
      <dc:title>Matplotlib v3.10.8, https://matplotlib.org/</dc:title>
     </cc:Agent>
    </dc:creator>
   </cc:Work>
  </rdf:RDF>
 </metadata>
 <defs>
  <style type="text/css">*{stroke-linejoin: round; stroke-linecap: butt}</style>
 </defs>
 <g id="figure_1">
  <g id="patch_1">
   <path d="M 0 360 
L 864 360 
L 864 0 
L 0 0 
z
" style="fill: #0f172a"/>
  </g>
  <g id="axes_1">
   <g id="patch_2">
    <path d="M 29.404615 288.011323 
L 427.68 288.011323 
L 427.68 23.718365 
L 29.404615 23.718365 
z
" style="fill: #0f172a"/>
   </g>
   <g id="matplotlib.axis_1">
    <g id="xtick_1">
     <g id="line2d_1">
      <path d="M 83.714895 288.011323 
L 83.714895 23.718365 
" clip-path="url(#p98a7076336)" style="fill: none; stroke-dasharray: 2.96,1.28; stroke-dashoffset: 0; stroke: #7c8ba0; stroke-opacity: 0.25; stroke-width: 0.8"/>
     </g>
     <g id="line2d_2">
      <defs>
       <path id="m33e07cb989" d="M 0 0 
L 0 3.5 
" style="stroke: #e5edf7; stroke-width: 0.8"/>
      </defs>
      <g>
       <use xlink:href="#m33e07cb989" x="83.714895" y="288.011323" style="fill: #e5edf7; stroke: #e5edf7; stroke-width: 0.8"/>
      </g>
     </g>
     <g id="text_1">
      <!-- 10 -->
      <g style="fill: #e5edf7" transform="translate(77.988645 301.849916) scale(0.09 -0.09)">
       <defs>
        <path id="DejaVuSans-31" d="M 794 531 
L 1825 531 
L 1825 4091 
L 703 3866 
L 703 4441 
L 1819 4666 
L 2450 4666 
L 2450 531 
L 3481 531 
L 3481 0 
L 794 0 
L 794 531 
z
" transform="scale(0.015625)"/>
        <path id="DejaVuSans-30" d="M 2034 4250 
Q 1547 4250 1301 3770 
Q 1056 3291 1056 2328 
Q 1056 1369 1301 889 
Q 1547 409 2034 409 
Q 2525 409 2770 889 
Q 3016 1369 3016 2328 
Q 3016 3291 2770 3770 
Q 2525 4250 2034 4250 
z
M 2034 4750 
Q 2819 4750 3233 4129 
Q 3647 3509 3647 2328 
Q 3647 1150 3233 529 
Q 2819 -91 2034 -91 
Q 1250 -91 836 529 
Q 422 1150 422 2328 
Q 422 3509 836 4129 
Q 1250 4750 2034 4750 
z
" transform="scale(0.015625)"/>
       </defs>
       <use xlink:href="#DejaVuSans-31"/>
       <use xlink:href="#DejaVuSans-30" transform="translate(63.623047 0)"/>
      </g>
     </g>
    </g>
    <g id="xtick_2">
     <g id="line2d_3">
      <path d="M 144.05965 288.011323 
L 144.05965 23.718365 
" clip-path="url(#p98a7076336)" style="fill: none; stroke-dasharray: 2.96,1.28; stroke-dashoffset: 0; stroke: #7c8ba0; stroke-opacity: 0.25; stroke-width: 0.8"/>
     </g>
     <g id="line2d_4">
      <g>
       <use xlink:href="#m33e07cb989" x="144.05965" y="288.011323" style="fill: #e5edf7; stroke: #e5edf7; stroke-width: 0.8"/>
      </g>
     </g>
     <g id="text_2">
      <!-- 20 -->
      <g style="fill: #e5edf7" transform="translate(138.3334 301.849916) scale(0.09 -0.09)">
       <defs>
        <path id="DejaVuSans-32" d="M 1228 531 
L 3431 531 
L 3431 0 
L 469 0 
L 469 531 
Q 828 903 1448 1529 
Q 2069 2156 2228 2338 
Q 2531 2678 2651 2914 
Q 2772 3150 2772 3378 
Q 2772 3750 2511 3984 
Q 2250 4219 1831 4219 
Q 1534 4219 1204 4116 
Q 875 4013 500 3803 
L 500 4441 
Q 881 4594 1212 4672 
Q 1544 4750 1819 4750 
Q 2544 4750 2975 4387 
Q 3406 4025 3406 3419 
Q 3406 3131 3298 2873 
Q 3191 2616 2906 2266 
Q 2828 2175 2409 1742 
Q 1991 1309 1228 531 
z
" transform="scale(0.015625)"/>
       </defs>
       <use xlink:href="#DejaVuSans-32"/>
       <use xlink:href="#DejaVuSans-30" transform="translate(63.623047 0)"/>
      </g>
     </g>
    </g>
    <g id="xtick_3">
     <g id="line2d_5">
      <path d="M 204.404405 288.011323 
L 204.404405 23.718365 
" clip-path="url(#p98a7076336)" style="fill: none; stroke-dasharray: 2.96,1.28; stroke-dashoffset: 0; stroke: #7c8ba0; stroke-opacity: 0.25; stroke-width: 0.8"/>
     </g>
     <g id="line2d_6">
      <g>
       <use xlink:href="#m33e07cb989" x="204.404405" y="288.011323" style="fill: #e5edf7; stroke: #e5edf7; stroke-width: 0.8"/>
      </g>
     </g>
     <g id="text_3">
      <!-- 30 -->
      <g style="fill: #e5edf7" transform="translate(198.678155 301.849916) scale(0.09 -0.09)">
       <defs>
        <path id="DejaVuSans-33" d="M 2597 2516 
Q 3050 2419 3304 2112 
Q 3559 1806 3559 1356 
Q 3559 666 3084 287 
Q 2609 -91 1734 -91 
Q 1441 -91 1130 -33 
Q 819 25 488 141 
L 488 750 
Q 750 597 1062 519 
Q 1375 441 1716 441 
Q 2309 441 2620 675 
Q 2931 909 2931 1356 
Q 2931 1769 2642 2001 
Q 2353 2234 1838 2234 
L 1294 2234 
L 1294 2753 
L 1863 2753 
Q 2328 2753 2575 2939 
Q 2822 3125 2822 3475 
Q 2822 3834 2567 4026 
Q 2313 4219 1838 4219 
Q 1578 4219 1281 4162 
Q 984 4106 628 3988 
L 628 4550 
Q 988 4650 1302 4700 
Q 1616 4750 1894 4750 
Q 2613 4750 3031 4423 
Q 3450 4097 3450 3541 
Q 3450 3153 3228 2886 
Q 3006 2619 2597 2516 
z
" transform="scale(0.015625)"/>
       </defs>
       <use xlink:href="#DejaVuSans-33"/>
       <use xlink:href="#DejaVuSans-30" transform="translate(63.623047 0)"/>
      </g>
     </g>
    </g>
    <g id="xtick_4">
     <g id="line2d_7">
      <path d="M 264.749161 288.011323 
L 264.749161 23.718365 
" clip-path="url(#p98a7076336)" style="fill: none; stroke-dasharray: 2.96,1.28; stroke-dashoffset: 0; stroke: #7c8ba0; stroke-opacity: 0.25; stroke-width: 0.8"/>
     </g>
     <g id="line2d_8">
      <g>
       <use xlink:href="#m33e07cb989" x="264.749161" y="288.011323" style="fill: #e5edf7; stroke: #e5edf7; stroke-width: 0.8"/>
      </g>
     </g>
     <g id="text_4">
      <!-- 40 -->
      <g style="fill: #e5edf7" transform="translate(259.022911 301.849916) scale(0.09 -0.09)">
       <defs>
        <path id="DejaVuSans-34" d="M 2419 4116 
L 825 1625 
L 2419 1625 
L 2419 4116 
z
M 2253 4666 
L 3047 4666 
L 3047 1625 
L 3713 1625 
L 3713 1100 
L 3047 1100 
L 3047 0 
L 2419 0 
L 2419 1100 
L 313 1100 
L 313 1709 
L 2253 4666 
z
" transform="scale(0.015625)"/>
       </defs>
       <use xlink:href="#DejaVuSans-34"/>
       <use xlink:href="#DejaVuSans-30" transform="translate(63.623047 0)"/>
      </g>
     </g>
    </g>
    <g id="xtick_5">
     <g id="line2d_9">
      <path d="M 325.093916 288.011323 
L 325.093916 23.718365 
" clip-path="url(#p98a7076336)" style="fill: none; stroke-dasharray: 2.96,1.28; stroke-dashoffset: 0; stroke: #7c8ba0; stroke-opacity: 0.25; stroke-width: 0.8"/>
     </g>
     <g id="line2d_10">
      <g>
       <use xlink:href="#m33e07cb989" x="325.093916" y="288.011323" style="fill: #e5edf7; stroke: #e5edf7; stroke-width: 0.8"/>
      </g>
     </g>
     <g id="text_5">
      <!-- 50 -->
      <g style="fill: #e5edf7" transform="translate(319.367666 301.849916) scale(0.09 -0.09)">
       <defs>
        <path id="DejaVuSans-35" d="M 691 4666 
L 3169 4666 
L 3169 4134 
L 1269 4134 
L 1269 2991 
Q 1406 3038 1543 3061 
Q 1681 3084 1819 3084 
Q 2600 3084 3056 2656 
Q 3513 2228 3513 1497 
Q 3513 744 3044 326 
Q 2575 -91 1722 -91 
Q 1428 -91 1123 -41 
Q 819 9 494 109 
L 494 744 
Q 775 591 1075 516 
Q 1375 441 1709 441 
Q 2250 441 2565 725 
Q 2881 1009 2881 1497 
Q 2881 1984 2565 2268 
Q 2250 2553 1709 2553 
Q 1456 2553 1204 2497 
Q 953 2441 691 2322 
L 691 4666 
z
" transform="scale(0.015625)"/>
       </defs>
       <use xlink:href="#DejaVuSans-35"/>
       <use xlink:href="#DejaVuSans-30" transform="translate(63.623047 0)"/>
      </g>
     </g>
    </g>
    <g id="xtick_6">
     <g id="line2d_11">
      <path d="M 385.438671 288.011323 
L 385.438671 23.718365 
" clip-path="url(#p98a7076336)" style="fill: none; stroke-dasharray: 2.96,1.28; stroke-dashoffset: 0; stroke: #7c8ba0; stroke-opacity: 0.25; stroke-width: 0.8"/>
     </g>
     <g id="line2d_12">
      <g>
       <use xlink:href="#m33e07cb989" x="385.438671" y="288.011323" style="fill: #e5edf7; stroke: #e5edf7; stroke-width: 0.8"/>
      </g>
     </g>
     <g id="text_6">
      <!-- 60 -->
      <g style="fill: #e5edf7" transform="translate(379.712421 301.849916) scale(0.09 -0.09)">
       <defs>
        <path id="DejaVuSans-36" d="M 2113 2584 
Q 1688 2584 1439 2293 
Q 1191 2003 1191 1497 
Q 1191 994 1439 701 
Q 1688 409 2113 409 
Q 2538 409 2786 701 
Q 3034 994 3034 1497 
Q 3034 2003 2786 2293 
Q 2538 2584 2113 2584 
z
M 3366 4563 
L 3366 3988 
Q 3128 4100 2886 4159 
Q 2644 4219 2406 4219 
Q 1781 4219 1451 3797 
Q 1122 3375 1075 2522 
Q 1259 2794 1537 2939 
Q 1816 3084 2150 3084 
Q 2853 3084 3261 2657 
Q 3669 2231 3669 1497 
Q 3669 778 3244 343 
Q 2819 -91 2113 -91 
Q 1303 -91 875 529 
Q 447 1150 447 2328 
Q 447 3434 972 4092 
Q 1497 4750 2381 4750 
Q 2619 4750 2861 4703 
Q 3103 4656 3366 4563 
z
" transform="scale(0.015625)"/>
       </defs>
       <use xlink:href="#DejaVuSans-36"/>
       <use xlink:href="#DejaVuSans-30" transform="translate(63.623047 0)"/>
      </g>
     </g>
    </g>
    <g id="text_7">
     <!-- n_steps -->
     <g style="fill: #e5edf7" transform="translate(209.453245 315.041947) scale(0.1 -0.1)">
      <defs>
       <path id="DejaVuSans-6e" d="M 3513 2113 
L 3513 0 
L 2938 0 
L 2938 2094 
Q 2938 2591 2744 2837 
Q 2550 3084 2163 3084 
Q 1697 3084 1428 2787 
Q 1159 2491 1159 1978 
L 1159 0 
L 581 0 
L 581 3500 
L 1159 3500 
L 1159 2956 
Q 1366 3272 1645 3428 
Q 1925 3584 2291 3584 
Q 2894 3584 3203 3211 
Q 3513 2838 3513 2113 
z
" transform="scale(0.015625)"/>
       <path id="DejaVuSans-5f" d="M 3263 -1063 
L 3263 -1509 
L -63 -1509 
L -63 -1063 
L 3263 -1063 
z
" transform="scale(0.015625)"/>
       <path id="DejaVuSans-73" d="M 2834 3397 
L 2834 2853 
Q 2591 2978 2328 3040 
Q 2066 3103 1784 3103 
Q 1356 3103 1142 2972 
Q 928 2841 928 2578 
Q 928 2378 1081 2264 
Q 1234 2150 1697 2047 
L 1894 2003 
Q 2506 1872 2764 1633 
Q 3022 1394 3022 966 
Q 3022 478 2636 193 
Q 2250 -91 1575 -91 
Q 1294 -91 989 -36 
Q 684 19 347 128 
L 347 722 
Q 666 556 975 473 
Q 1284 391 1588 391 
Q 1994 391 2212 530 
Q 2431 669 2431 922 
Q 2431 1156 2273 1281 
Q 2116 1406 1581 1522 
L 1381 1569 
Q 847 1681 609 1914 
Q 372 2147 372 2553 
Q 372 3047 722 3315 
Q 1072 3584 1716 3584 
Q 2034 3584 2315 3537 
Q 2597 3491 2834 3397 
z
" transform="scale(0.015625)"/>
       <path id="DejaVuSans-74" d="M 1172 4494 
L 1172 3500 
L 2356 3500 
L 2356 3053 
L 1172 3053 
L 1172 1153 
Q 1172 725 1289 603 
Q 1406 481 1766 481 
L 2356 481 
L 2356 0 
L 1766 0 
Q 1100 0 847 248 
Q 594 497 594 1153 
L 594 3053 
L 172 3053 
L 172 3500 
L 594 3500 
L 594 4494 
L 1172 4494 
z
" transform="scale(0.015625)"/>
       <path id="DejaVuSans-65" d="M 3597 1894 
L 3597 1613 
L 953 1613 
Q 991 1019 1311 708 
Q 1631 397 2203 397 
Q 2534 397 2845 478 
Q 3156 559 3463 722 
L 3463 178 
Q 3153 47 2828 -22 
Q 2503 -91 2169 -91 
Q 1331 -91 842 396 
Q 353 884 353 1716 
Q 353 2575 817 3079 
Q 1281 3584 2069 3584 
Q 2775 3584 3186 3129 
Q 3597 2675 3597 1894 
z
M 3022 2063 
Q 3016 2534 2758 2815 
Q 2500 3097 2075 3097 
Q 1594 3097 1305 2825 
Q 1016 2553 972 2059 
L 3022 2063 
z
" transform="scale(0.015625)"/>
       <path id="DejaVuSans-70" d="M 1159 525 
L 1159 -1331 
L 581 -1331 
L 581 3500 
L 1159 3500 
L 1159 2969 
Q 1341 3281 1617 3432 
Q 1894 3584 2278 3584 
Q 2916 3584 3314 3078 
Q 3713 2572 3713 1747 
Q 3713 922 3314 415 
Q 2916 -91 2278 -91 
Q 1894 -91 1617 61 
Q 1341 213 1159 525 
z
M 3116 1747 
Q 3116 2381 2855 2742 
Q 2594 3103 2138 3103 
Q 1681 3103 1420 2742 
Q 1159 2381 1159 1747 
Q 1159 1113 1420 752 
Q 1681 391 2138 391 
Q 2594 391 2855 752 
Q 3116 1113 3116 1747 
z
" transform="scale(0.015625)"/>
      </defs>
      <use xlink:href="#DejaVuSans-6e"/>
      <use xlink:href="#DejaVuSans-5f" transform="translate(63.378906 0)"/>
      <use xlink:href="#DejaVuSans-73" transform="translate(113.378906 0)"/>
      <use xlink:href="#DejaVuSans-74" transform="translate(165.478516 0)"/>
      <use xlink:href="#DejaVuSans-65" transform="translate(204.6875 0)"/>
      <use xlink:href="#DejaVuSans-70" transform="translate(266.210938 0)"/>
      <use xlink:href="#DejaVuSans-73" transform="translate(329.6875 0)"/>
     </g>
    </g>
   </g>
   <g id="matplotlib.axis_2">
    <g id="ytick_1">
     <g id="line2d_13">
      <path d="M 29.404615 268.446585 
L 427.68 268.446585 
" clip-path="url(#p98a7076336)" style="fill: none; stroke-dasharray: 2.96,1.28; stroke-dashoffset: 0; stroke: #7c8ba0; stroke-opacity: 0.25; stroke-width: 0.8"/>
     </g>
     <g id="line2d_14">
      <defs>
       <path id="m0f61ffd276" d="M 0 0 
L -3.5 0 
" style="stroke: #e5edf7; stroke-width: 0.8"/>
      </defs>
      <g>
       <use xlink:href="#m0f61ffd276" x="29.404615" y="268.446585" style="fill: #e5edf7; stroke: #e5edf7; stroke-width: 0.8"/>
      </g>
     </g>
     <g id="text_8">
      <!-- 0 -->
      <g style="fill: #e5edf7" transform="translate(16.678365 271.865882) scale(0.09 -0.09)">
       <use xlink:href="#DejaVuSans-30"/>
      </g>
     </g>
    </g>
    <g id="ytick_2">
     <g id="line2d_15">
      <path d="M 29.404615 234.34908 
L 427.68 234.34908 
" clip-path="url(#p98a7076336)" style="fill: none; stroke-dasharray: 2.96,1.28; stroke-dashoffset: 0; stroke: #7c8ba0; stroke-opacity: 0.25; stroke-width: 0.8"/>
     </g>
     <g id="line2d_16">
      <g>
       <use xlink:href="#m0f61ffd276" x="29.404615" y="234.34908" style="fill: #e5edf7; stroke: #e5edf7; stroke-width: 0.8"/>
      </g>
     </g>
     <g id="text_9">
      <!-- 1 -->
      <g style="fill: #e5edf7" transform="translate(16.678365 237.768377) scale(0.09 -0.09)">
       <use xlink:href="#DejaVuSans-31"/>
      </g>
     </g>
    </g>
    <g id="ytick_3">
     <g id="line2d_17">
      <path d="M 29.404615 200.251575 
L 427.68 200.251575 
" clip-path="url(#p98a7076336)" style="fill: none; stroke-dasharray: 2.96,1.28; stroke-dashoffset: 0; stroke: #7c8ba0; stroke-opacity: 0.25; stroke-width: 0.8"/>
     </g>
     <g id="line2d_18">
      <g>
       <use xlink:href="#m0f61ffd276" x="29.404615" y="200.251575" style="fill: #e5edf7; stroke: #e5edf7; stroke-width: 0.8"/>
      </g>
     </g>
     <g id="text_10">
      <!-- 2 -->
      <g style="fill: #e5edf7" transform="translate(16.678365 203.670872) scale(0.09 -0.09)">
       <use xlink:href="#DejaVuSans-32"/>
      </g>
     </g>
    </g>
    <g id="ytick_4">
     <g id="line2d_19">
      <path d="M 29.404615 166.15407 
L 427.68 166.15407 
" clip-path="url(#p98a7076336)" style="fill: none; stroke-dasharray: 2.96,1.28; stroke-dashoffset: 0; stroke: #7c8ba0; stroke-opacity: 0.25; stroke-width: 0.8"/>
     </g>
     <g id="line2d_20">
      <g>
       <use xlink:href="#m0f61ffd276" x="29.404615" y="166.15407" style="fill: #e5edf7; stroke: #e5edf7; stroke-width: 0.8"/>
      </g>
     </g>
     <g id="text_11">
      <!-- 3 -->
      <g style="fill: #e5edf7" transform="translate(16.678365 169.573367) scale(0.09 -0.09)">
       <use xlink:href="#DejaVuSans-33"/>
      </g>
     </g>
    </g>
    <g id="ytick_5">
     <g id="line2d_21">
      <path d="M 29.404615 132.056565 
L 427.68 132.056565 
" clip-path="url(#p98a7076336)" style="fill: none; stroke-dasharray: 2.96,1.28; stroke-dashoffset: 0; stroke: #7c8ba0; stroke-opacity: 0.25; stroke-width: 0.8"/>
     </g>
     <g id="line2d_22">
      <g>
       <use xlink:href="#m0f61ffd276" x="29.404615" y="132.056565" style="fill: #e5edf7; stroke: #e5edf7; stroke-width: 0.8"/>
      </g>
     </g>
     <g id="text_12">
      <!-- 4 -->
      <g style="fill: #e5edf7" transform="translate(16.678365 135.475861) scale(0.09 -0.09)">
       <use xlink:href="#DejaVuSans-34"/>
      </g>
     </g>
    </g>
    <g id="ytick_6">
     <g id="line2d_23">
      <path d="M 29.404615 97.959059 
L 427.68 97.959059 
" clip-path="url(#p98a7076336)" style="fill: none; stroke-dasharray: 2.96,1.28; stroke-dashoffset: 0; stroke: #7c8ba0; stroke-opacity: 0.25; stroke-width: 0.8"/>
     </g>
     <g id="line2d_24">
      <g>
       <use xlink:href="#m0f61ffd276" x="29.404615" y="97.959059" style="fill: #e5edf7; stroke: #e5edf7; stroke-width: 0.8"/>
      </g>
     </g>
     <g id="text_13">
      <!-- 5 -->
      <g style="fill: #e5edf7" transform="translate(16.678365 101.378356) scale(0.09 -0.09)">
       <use xlink:href="#DejaVuSans-35"/>
      </g>
     </g>
    </g>
    <g id="ytick_7">
     <g id="line2d_25">
      <path d="M 29.404615 63.861554 
L 427.68 63.861554 
" clip-path="url(#p98a7076336)" style="fill: none; stroke-dasharray: 2.96,1.28; stroke-dashoffset: 0; stroke: #7c8ba0; stroke-opacity: 0.25; stroke-width: 0.8"/>
     </g>
     <g id="line2d_26">
      <g>
       <use xlink:href="#m0f61ffd276" x="29.404615" y="63.861554" style="fill: #e5edf7; stroke: #e5edf7; stroke-width: 0.8"/>
      </g>
     </g>
     <g id="text_14">
      <!-- 6 -->
      <g style="fill: #e5edf7" transform="translate(16.678365 67.280851) scale(0.09 -0.09)">
       <use xlink:href="#DejaVuSans-36"/>
      </g>
     </g>
    </g>
    <g id="ytick_8">
     <g id="line2d_27">
      <path d="M 29.404615 29.764049 
L 427.68 29.764049 
" clip-path="url(#p98a7076336)" style="fill: none; stroke-dasharray: 2.96,1.28; stroke-dashoffset: 0; stroke: #7c8ba0; stroke-opacity: 0.25; stroke-width: 0.8"/>
     </g>
     <g id="line2d_28">
      <g>
       <use xlink:href="#m0f61ffd276" x="29.404615" y="29.764049" style="fill: #e5edf7; stroke: #e5edf7; stroke-width: 0.8"/>
      </g>
     </g>
     <g id="text_15">
      <!-- 7 -->
      <g style="fill: #e5edf7" transform="translate(16.678365 33.183346) scale(0.09 -0.09)">
       <defs>
        <path id="DejaVuSans-37" d="M 525 4666 
L 3525 4666 
L 3525 4397 
L 1831 0 
L 1172 0 
L 2766 4134 
L 525 4134 
L 525 4666 
z
" transform="scale(0.015625)"/>
       </defs>
       <use xlink:href="#DejaVuSans-37"/>
      </g>
     </g>
    </g>
    <g id="text_16">
     <!-- Bias (MC - Fourier) -->
     <g style="fill: #e5edf7" transform="translate(10.598677 202.130469) rotate(-90) scale(0.1 -0.1)">
      <defs>
       <path id="DejaVuSans-42" d="M 1259 2228 
L 1259 519 
L 2272 519 
Q 2781 519 3026 730 
Q 3272 941 3272 1375 
Q 3272 1813 3026 2020 
Q 2781 2228 2272 2228 
L 1259 2228 
z
M 1259 4147 
L 1259 2741 
L 2194 2741 
Q 2656 2741 2882 2914 
Q 3109 3088 3109 3444 
Q 3109 3797 2882 3972 
Q 2656 4147 2194 4147 
L 1259 4147 
z
M 628 4666 
L 2241 4666 
Q 2963 4666 3353 4366 
Q 3744 4066 3744 3513 
Q 3744 3084 3544 2831 
Q 3344 2578 2956 2516 
Q 3422 2416 3680 2098 
Q 3938 1781 3938 1306 
Q 3938 681 3513 340 
Q 3088 0 2303 0 
L 628 0 
L 628 4666 
z
" transform="scale(0.015625)"/>
       <path id="DejaVuSans-69" d="M 603 3500 
L 1178 3500 
L 1178 0 
L 603 0 
L 603 3500 
z
M 603 4863 
L 1178 4863 
L 1178 4134 
L 603 4134 
L 603 4863 
z
" transform="scale(0.015625)"/>
       <path id="DejaVuSans-61" d="M 2194 1759 
Q 1497 1759 1228 1600 
Q 959 1441 959 1056 
Q 959 750 1161 570 
Q 1363 391 1709 391 
Q 2188 391 2477 730 
Q 2766 1069 2766 1631 
L 2766 1759 
L 2194 1759 
z
M 3341 1997 
L 3341 0 
L 2766 0 
L 2766 531 
Q 2569 213 2275 61 
Q 1981 -91 1556 -91 
Q 1019 -91 701 211 
Q 384 513 384 1019 
Q 384 1609 779 1909 
Q 1175 2209 1959 2209 
L 2766 2209 
L 2766 2266 
Q 2766 2663 2505 2880 
Q 2244 3097 1772 3097 
Q 1472 3097 1187 3025 
Q 903 2953 641 2809 
L 641 3341 
Q 956 3463 1253 3523 
Q 1550 3584 1831 3584 
Q 2591 3584 2966 3190 
Q 3341 2797 3341 1997 
z
" transform="scale(0.015625)"/>
       <path id="DejaVuSans-20" transform="scale(0.015625)"/>
       <path id="DejaVuSans-28" d="M 1984 4856 
Q 1566 4138 1362 3434 
Q 1159 2731 1159 2009 
Q 1159 1288 1364 580 
Q 1569 -128 1984 -844 
L 1484 -844 
Q 1016 -109 783 600 
Q 550 1309 550 2009 
Q 550 2706 781 3412 
Q 1013 4119 1484 4856 
L 1984 4856 
z
" transform="scale(0.015625)"/>
       <path id="DejaVuSans-4d" d="M 628 4666 
L 1569 4666 
L 2759 1491 
L 3956 4666 
L 4897 4666 
L 4897 0 
L 4281 0 
L 4281 4097 
L 3078 897 
L 2444 897 
L 1241 4097 
L 1241 0 
L 628 0 
L 628 4666 
z
" transform="scale(0.015625)"/>
       <path id="DejaVuSans-43" d="M 4122 4306 
L 4122 3641 
Q 3803 3938 3442 4084 
Q 3081 4231 2675 4231 
Q 1875 4231 1450 3742 
Q 1025 3253 1025 2328 
Q 1025 1406 1450 917 
Q 1875 428 2675 428 
Q 3081 428 3442 575 
Q 3803 722 4122 1019 
L 4122 359 
Q 3791 134 3420 21 
Q 3050 -91 2638 -91 
Q 1578 -91 968 557 
Q 359 1206 359 2328 
Q 359 3453 968 4101 
Q 1578 4750 2638 4750 
Q 3056 4750 3426 4639 
Q 3797 4528 4122 4306 
z
" transform="scale(0.015625)"/>
       <path id="DejaVuSans-2d" d="M 313 2009 
L 1997 2009 
L 1997 1497 
L 313 1497 
L 313 2009 
z
" transform="scale(0.015625)"/>
       <path id="DejaVuSans-46" d="M 628 4666 
L 3309 4666 
L 3309 4134 
L 1259 4134 
L 1259 2759 
L 3109 2759 
L 3109 2228 
L 1259 2228 
L 1259 0 
L 628 0 
L 628 4666 
z
" transform="scale(0.015625)"/>
       <path id="DejaVuSans-6f" d="M 1959 3097 
Q 1497 3097 1228 2736 
Q 959 2375 959 1747 
Q 959 1119 1226 758 
Q 1494 397 1959 397 
Q 2419 397 2687 759 
Q 2956 1122 2956 1747 
Q 2956 2369 2687 2733 
Q 2419 3097 1959 3097 
z
M 1959 3584 
Q 2709 3584 3137 3096 
Q 3566 2609 3566 1747 
Q 3566 888 3137 398 
Q 2709 -91 1959 -91 
Q 1206 -91 779 398 
Q 353 888 353 1747 
Q 353 2609 779 3096 
Q 1206 3584 1959 3584 
z
" transform="scale(0.015625)"/>
       <path id="DejaVuSans-75" d="M 544 1381 
L 544 3500 
L 1119 3500 
L 1119 1403 
Q 1119 906 1312 657 
Q 1506 409 1894 409 
Q 2359 409 2629 706 
Q 2900 1003 2900 1516 
L 2900 3500 
L 3475 3500 
L 3475 0 
L 2900 0 
L 2900 538 
Q 2691 219 2414 64 
Q 2138 -91 1772 -91 
Q 1169 -91 856 284 
Q 544 659 544 1381 
z
M 1991 3584 
L 1991 3584 
z
" transform="scale(0.015625)"/>
       <path id="DejaVuSans-72" d="M 2631 2963 
Q 2534 3019 2420 3045 
Q 2306 3072 2169 3072 
Q 1681 3072 1420 2755 
Q 1159 2438 1159 1844 
L 1159 0 
L 581 0 
L 581 3500 
L 1159 3500 
L 1159 2956 
Q 1341 3275 1631 3429 
Q 1922 3584 2338 3584 
Q 2397 3584 2469 3576 
Q 2541 3569 2628 3553 
L 2631 2963 
z
" transform="scale(0.015625)"/>
       <path id="DejaVuSans-29" d="M 513 4856 
L 1013 4856 
Q 1481 4119 1714 3412 
Q 1947 2706 1947 2009 
Q 1947 1309 1714 600 
Q 1481 -109 1013 -844 
L 513 -844 
Q 928 -128 1133 580 
Q 1338 1288 1338 2009 
Q 1338 2731 1133 3434 
Q 928 4138 513 4856 
z
" transform="scale(0.015625)"/>
      </defs>
      <use xlink:href="#DejaVuSans-42"/>
      <use xlink:href="#DejaVuSans-69" transform="translate(68.603516 0)"/>
      <use xlink:href="#DejaVuSans-61" transform="translate(96.386719 0)"/>
      <use xlink:href="#DejaVuSans-73" transform="translate(157.666016 0)"/>
      <use xlink:href="#DejaVuSans-20" transform="translate(209.765625 0)"/>
      <use xlink:href="#DejaVuSans-28" transform="translate(241.552734 0)"/>
      <use xlink:href="#DejaVuSans-4d" transform="translate(280.566406 0)"/>
      <use xlink:href="#DejaVuSans-43" transform="translate(366.845703 0)"/>
      <use xlink:href="#DejaVuSans-20" transform="translate(436.669922 0)"/>
      <use xlink:href="#DejaVuSans-2d" transform="translate(468.457031 0)"/>
      <use xlink:href="#DejaVuSans-20" transform="translate(504.541016 0)"/>
      <use xlink:href="#DejaVuSans-46" transform="translate(536.328125 0)"/>
      <use xlink:href="#DejaVuSans-6f" transform="translate(590.222656 0)"/>
      <use xlink:href="#DejaVuSans-75" transform="translate(651.404297 0)"/>
      <use xlink:href="#DejaVuSans-72" transform="translate(714.783203 0)"/>
      <use xlink:href="#DejaVuSans-69" transform="translate(755.896484 0)"/>
      <use xlink:href="#DejaVuSans-65" transform="translate(783.679688 0)"/>
      <use xlink:href="#DejaVuSans-72" transform="translate(845.203125 0)"/>
      <use xlink:href="#DejaVuSans-29" transform="translate(886.316406 0)"/>
     </g>
    </g>
   </g>
   <g id="line2d_29">
    <path d="M 47.508042 35.731681 
L 71.645944 55.572805 
L 119.921748 85.535342 
L 216.473356 110.336171 
L 409.576573 130.626729 
" clip-path="url(#p98a7076336)" style="fill: none; stroke: #1f77b4; stroke-width: 2; stroke-linecap: square"/>
    <defs>
     <path id="m2f6ece1c38" d="M 0 3 
C 0.795609 3 1.55874 2.683901 2.12132 2.12132 
C 2.683901 1.55874 3 0.795609 3 0 
C 3 -0.795609 2.683901 -1.55874 2.12132 -2.12132 
C 1.55874 -2.683901 0.795609 -3 0 -3 
C -0.795609 -3 -1.55874 -2.683901 -2.12132 -2.12132 
C -2.683901 -1.55874 -3 -0.795609 -3 0 
C -3 0.795609 -2.683901 1.55874 -2.12132 2.12132 
C -1.55874 2.683901 -0.795609 3 0 3 
z
" style="stroke: #1f77b4"/>
    </defs>
    <g clip-path="url(#p98a7076336)">
     <use xlink:href="#m2f6ece1c38" x="47.508042" y="35.731681" style="fill: #1f77b4; stroke: #1f77b4"/>
     <use xlink:href="#m2f6ece1c38" x="71.645944" y="55.572805" style="fill: #1f77b4; stroke: #1f77b4"/>
     <use xlink:href="#m2f6ece1c38" x="119.921748" y="85.535342" style="fill: #1f77b4; stroke: #1f77b4"/>
     <use xlink:href="#m2f6ece1c38" x="216.473356" y="110.336171" style="fill: #1f77b4; stroke: #1f77b4"/>
     <use xlink:href="#m2f6ece1c38" x="409.576573" y="130.626729" style="fill: #1f77b4; stroke: #1f77b4"/>
    </g>
   </g>
   <g id="line2d_30">
    <path d="M 47.508042 275.998006 
L 71.645944 269.644564 
L 119.921748 269.589055 
L 216.473356 270.850912 
L 409.576573 268.808726 
" clip-path="url(#p98a7076336)" style="fill: none; stroke: #ff7f0e; stroke-width: 2; stroke-linecap: square"/>
    <defs>
     <path id="me0d3ad4f14" d="M 0 3 
C 0.795609 3 1.55874 2.683901 2.12132 2.12132 
C 2.683901 1.55874 3 0.795609 3 0 
C 3 -0.795609 2.683901 -1.55874 2.12132 -2.12132 
C 1.55874 -2.683901 0.795609 -3 0 -3 
C -0.795609 -3 -1.55874 -2.683901 -2.12132 -2.12132 
C -2.683901 -1.55874 -3 -0.795609 -3 0 
C -3 0.795609 -2.683901 1.55874 -2.12132 2.12132 
C -1.55874 2.683901 -0.795609 3 0 3 
z
" style="stroke: #ff7f0e"/>
    </defs>
    <g clip-path="url(#p98a7076336)">
     <use xlink:href="#me0d3ad4f14" x="47.508042" y="275.998006" style="fill: #ff7f0e; stroke: #ff7f0e"/>
     <use xlink:href="#me0d3ad4f14" x="71.645944" y="269.644564" style="fill: #ff7f0e; stroke: #ff7f0e"/>
     <use xlink:href="#me0d3ad4f14" x="119.921748" y="269.589055" style="fill: #ff7f0e; stroke: #ff7f0e"/>
     <use xlink:href="#me0d3ad4f14" x="216.473356" y="270.850912" style="fill: #ff7f0e; stroke: #ff7f0e"/>
     <use xlink:href="#me0d3ad4f14" x="409.576573" y="268.808726" style="fill: #ff7f0e; stroke: #ff7f0e"/>
    </g>
   </g>
   <g id="line2d_31">
    <path d="M 29.404615 268.446585 
L 427.68 268.446585 
" clip-path="url(#p98a7076336)" style="fill: none; stroke-dasharray: 3.7,1.6; stroke-dashoffset: 0; stroke: #000000"/>
   </g>
   <g id="patch_3">
    <path d="M 29.404615 288.011323 
L 29.404615 23.718365 
" style="fill: none; stroke: #94a3b8; stroke-width: 0.8; stroke-linejoin: miter; stroke-linecap: square"/>
   </g>
   <g id="patch_4">
    <path d="M 29.404615 288.011323 
L 427.68 288.011323 
" style="fill: none; stroke: #94a3b8; stroke-width: 0.8; stroke-linejoin: miter; stroke-linecap: square"/>
   </g>
   <g id="text_17">
    <!-- Bias vs timestep -->
    <g style="fill: #e5edf7" transform="translate(172.582932 15.718365) scale(0.12 -0.12)">
     <defs>
      <path id="DejaVuSans-Bold-42" d="M 2456 2859 
Q 2741 2859 2887 2984 
Q 3034 3109 3034 3353 
Q 3034 3594 2887 3720 
Q 2741 3847 2456 3847 
L 1791 3847 
L 1791 2859 
L 2456 2859 
z
M 2497 819 
Q 2859 819 3042 972 
Q 3225 1125 3225 1434 
Q 3225 1738 3044 1889 
Q 2863 2041 2497 2041 
L 1791 2041 
L 1791 819 
L 2497 819 
z
M 3616 2497 
Q 4003 2384 4215 2081 
Q 4428 1778 4428 1338 
Q 4428 663 3972 331 
Q 3516 0 2584 0 
L 588 0 
L 588 4666 
L 2394 4666 
Q 3366 4666 3802 4372 
Q 4238 4078 4238 3431 
Q 4238 3091 4078 2852 
Q 3919 2613 3616 2497 
z
" transform="scale(0.015625)"/>
      <path id="DejaVuSans-Bold-69" d="M 538 3500 
L 1656 3500 
L 1656 0 
L 538 0 
L 538 3500 
z
M 538 4863 
L 1656 4863 
L 1656 3950 
L 538 3950 
L 538 4863 
z
" transform="scale(0.015625)"/>
      <path id="DejaVuSans-Bold-61" d="M 2106 1575 
Q 1756 1575 1579 1456 
Q 1403 1338 1403 1106 
Q 1403 894 1545 773 
Q 1688 653 1941 653 
Q 2256 653 2472 879 
Q 2688 1106 2688 1447 
L 2688 1575 
L 2106 1575 
z
M 3816 1997 
L 3816 0 
L 2688 0 
L 2688 519 
Q 2463 200 2181 54 
Q 1900 -91 1497 -91 
Q 953 -91 614 226 
Q 275 544 275 1050 
Q 275 1666 698 1953 
Q 1122 2241 2028 2241 
L 2688 2241 
L 2688 2328 
Q 2688 2594 2478 2717 
Q 2269 2841 1825 2841 
Q 1466 2841 1156 2769 
Q 847 2697 581 2553 
L 581 3406 
Q 941 3494 1303 3539 
Q 1666 3584 2028 3584 
Q 2975 3584 3395 3211 
Q 3816 2838 3816 1997 
z
" transform="scale(0.015625)"/>
      <path id="DejaVuSans-Bold-73" d="M 3272 3391 
L 3272 2541 
Q 2913 2691 2578 2766 
Q 2244 2841 1947 2841 
Q 1628 2841 1473 2761 
Q 1319 2681 1319 2516 
Q 1319 2381 1436 2309 
Q 1553 2238 1856 2203 
L 2053 2175 
Q 2913 2066 3209 1816 
Q 3506 1566 3506 1031 
Q 3506 472 3093 190 
Q 2681 -91 1863 -91 
Q 1516 -91 1145 -36 
Q 775 19 384 128 
L 384 978 
Q 719 816 1070 734 
Q 1422 653 1784 653 
Q 2113 653 2278 743 
Q 2444 834 2444 1013 
Q 2444 1163 2330 1236 
Q 2216 1309 1875 1350 
L 1678 1375 
Q 931 1469 631 1722 
Q 331 1975 331 2491 
Q 331 3047 712 3315 
Q 1094 3584 1881 3584 
Q 2191 3584 2531 3537 
Q 2872 3491 3272 3391 
z
" transform="scale(0.015625)"/>
      <path id="DejaVuSans-Bold-20" transform="scale(0.015625)"/>
      <path id="DejaVuSans-Bold-76" d="M 97 3500 
L 1216 3500 
L 2088 1081 
L 2956 3500 
L 4078 3500 
L 2700 0 
L 1472 0 
L 97 3500 
z
" transform="scale(0.015625)"/>
      <path id="DejaVuSans-Bold-74" d="M 1759 4494 
L 1759 3500 
L 2913 3500 
L 2913 2700 
L 1759 2700 
L 1759 1216 
Q 1759 972 1856 886 
Q 1953 800 2241 800 
L 2816 800 
L 2816 0 
L 1856 0 
Q 1194 0 917 276 
Q 641 553 641 1216 
L 641 2700 
L 84 2700 
L 84 3500 
L 641 3500 
L 641 4494 
L 1759 4494 
z
" transform="scale(0.015625)"/>
      <path id="DejaVuSans-Bold-6d" d="M 3781 2919 
Q 3994 3244 4286 3414 
Q 4578 3584 4928 3584 
Q 5531 3584 5847 3212 
Q 6163 2841 6163 2131 
L 6163 0 
L 5038 0 
L 5038 1825 
Q 5041 1866 5042 1909 
Q 5044 1953 5044 2034 
Q 5044 2406 4934 2573 
Q 4825 2741 4581 2741 
Q 4263 2741 4089 2478 
Q 3916 2216 3909 1719 
L 3909 0 
L 2784 0 
L 2784 1825 
Q 2784 2406 2684 2573 
Q 2584 2741 2328 2741 
Q 2006 2741 1831 2477 
Q 1656 2213 1656 1722 
L 1656 0 
L 531 0 
L 531 3500 
L 1656 3500 
L 1656 2988 
Q 1863 3284 2130 3434 
Q 2397 3584 2719 3584 
Q 3081 3584 3359 3409 
Q 3638 3234 3781 2919 
z
" transform="scale(0.015625)"/>
      <path id="DejaVuSans-Bold-65" d="M 4031 1759 
L 4031 1441 
L 1416 1441 
Q 1456 1047 1700 850 
Q 1944 653 2381 653 
Q 2734 653 3104 758 
Q 3475 863 3866 1075 
L 3866 213 
Q 3469 63 3072 -14 
Q 2675 -91 2278 -91 
Q 1328 -91 801 392 
Q 275 875 275 1747 
Q 275 2603 792 3093 
Q 1309 3584 2216 3584 
Q 3041 3584 3536 3087 
Q 4031 2591 4031 1759 
z
M 2881 2131 
Q 2881 2450 2695 2645 
Q 2509 2841 2209 2841 
Q 1884 2841 1681 2658 
Q 1478 2475 1428 2131 
L 2881 2131 
z
" transform="scale(0.015625)"/>
      <path id="DejaVuSans-Bold-70" d="M 1656 506 
L 1656 -1331 
L 538 -1331 
L 538 3500 
L 1656 3500 
L 1656 2988 
Q 1888 3294 2169 3439 
Q 2450 3584 2816 3584 
Q 3463 3584 3878 3070 
Q 4294 2556 4294 1747 
Q 4294 938 3878 423 
Q 3463 -91 2816 -91 
Q 2450 -91 2169 54 
Q 1888 200 1656 506 
z
M 2400 2772 
Q 2041 2772 1848 2508 
Q 1656 2244 1656 1747 
Q 1656 1250 1848 986 
Q 2041 722 2400 722 
Q 2759 722 2948 984 
Q 3138 1247 3138 1747 
Q 3138 2247 2948 2509 
Q 2759 2772 2400 2772 
z
" transform="scale(0.015625)"/>
     </defs>
     <use xlink:href="#DejaVuSans-Bold-42"/>
     <use xlink:href="#DejaVuSans-Bold-69" transform="translate(76.220703 0)"/>
     <use xlink:href="#DejaVuSans-Bold-61" transform="translate(110.498047 0)"/>
     <use xlink:href="#DejaVuSans-Bold-73" transform="translate(177.978516 0)"/>
     <use xlink:href="#DejaVuSans-Bold-20" transform="translate(237.5 0)"/>
     <use xlink:href="#DejaVuSans-Bold-76" transform="translate(272.314453 0)"/>
     <use xlink:href="#DejaVuSans-Bold-73" transform="translate(337.5 0)"/>
     <use xlink:href="#DejaVuSans-Bold-20" transform="translate(397.021484 0)"/>
     <use xlink:href="#DejaVuSans-Bold-74" transform="translate(431.835938 0)"/>
     <use xlink:href="#DejaVuSans-Bold-69" transform="translate(479.638672 0)"/>
     <use xlink:href="#DejaVuSans-Bold-6d" transform="translate(513.916016 0)"/>
     <use xlink:href="#DejaVuSans-Bold-65" transform="translate(618.115234 0)"/>
     <use xlink:href="#DejaVuSans-Bold-73" transform="translate(685.9375 0)"/>
     <use xlink:href="#DejaVuSans-Bold-74" transform="translate(745.458984 0)"/>
     <use xlink:href="#DejaVuSans-Bold-65" transform="translate(793.261719 0)"/>
     <use xlink:href="#DejaVuSans-Bold-70" transform="translate(861.083984 0)"/>
    </g>
   </g>
   <g id="legend_1">
    <g id="patch_5">
     <path d="M 277.284687 61.630865 
L 420.68 61.630865 
Q 422.68 61.630865 422.68 59.630865 
L 422.68 30.718365 
Q 422.68 28.718365 420.68 28.718365 
L 277.284687 28.718365 
Q 275.284687 28.718365 275.284687 30.718365 
L 275.284687 59.630865 
Q 275.284687 61.630865 277.284687 61.630865 
z
" style="fill: #162033; opacity: 0.95; stroke: #314056; stroke-linejoin: miter"/>
    </g>
    <g id="line2d_32">
     <path d="M 279.284687 36.816803 
L 289.284687 36.816803 
L 299.284687 36.816803 
" style="fill: none; stroke: #1f77b4; stroke-width: 2; stroke-linecap: square"/>
     <g>
      <use xlink:href="#m2f6ece1c38" x="289.284687" y="36.816803" style="fill: #1f77b4; stroke: #1f77b4"/>
     </g>
    </g>
    <g id="text_18">
     <!-- euler_full_truncation -->
     <g style="fill: #e5edf7" transform="translate(307.284687 40.316803) scale(0.1 -0.1)">
      <defs>
       <path id="DejaVuSans-6c" d="M 603 4863 
L 1178 4863 
L 1178 0 
L 603 0 
L 603 4863 
z
" transform="scale(0.015625)"/>
       <path id="DejaVuSans-66" d="M 2375 4863 
L 2375 4384 
L 1825 4384 
Q 1516 4384 1395 4259 
Q 1275 4134 1275 3809 
L 1275 3500 
L 2222 3500 
L 2222 3053 
L 1275 3053 
L 1275 0 
L 697 0 
L 697 3053 
L 147 3053 
L 147 3500 
L 697 3500 
L 697 3744 
Q 697 4328 969 4595 
Q 1241 4863 1831 4863 
L 2375 4863 
z
" transform="scale(0.015625)"/>
       <path id="DejaVuSans-63" d="M 3122 3366 
L 3122 2828 
Q 2878 2963 2633 3030 
Q 2388 3097 2138 3097 
Q 1578 3097 1268 2742 
Q 959 2388 959 1747 
Q 959 1106 1268 751 
Q 1578 397 2138 397 
Q 2388 397 2633 464 
Q 2878 531 3122 666 
L 3122 134 
Q 2881 22 2623 -34 
Q 2366 -91 2075 -91 
Q 1284 -91 818 406 
Q 353 903 353 1747 
Q 353 2603 823 3093 
Q 1294 3584 2113 3584 
Q 2378 3584 2631 3529 
Q 2884 3475 3122 3366 
z
" transform="scale(0.015625)"/>
      </defs>
      <use xlink:href="#DejaVuSans-65"/>
      <use xlink:href="#DejaVuSans-75" transform="translate(61.523438 0)"/>
      <use xlink:href="#DejaVuSans-6c" transform="translate(124.902344 0)"/>
      <use xlink:href="#DejaVuSans-65" transform="translate(152.685547 0)"/>
      <use xlink:href="#DejaVuSans-72" transform="translate(214.208984 0)"/>
      <use xlink:href="#DejaVuSans-5f" transform="translate(255.322266 0)"/>
      <use xlink:href="#DejaVuSans-66" transform="translate(305.322266 0)"/>
      <use xlink:href="#DejaVuSans-75" transform="translate(340.527344 0)"/>
      <use xlink:href="#DejaVuSans-6c" transform="translate(403.90625 0)"/>
      <use xlink:href="#DejaVuSans-6c" transform="translate(431.689453 0)"/>
      <use xlink:href="#DejaVuSans-5f" transform="translate(459.472656 0)"/>
      <use xlink:href="#DejaVuSans-74" transform="translate(509.472656 0)"/>
      <use xlink:href="#DejaVuSans-72" transform="translate(548.681641 0)"/>
      <use xlink:href="#DejaVuSans-75" transform="translate(589.794922 0)"/>
      <use xlink:href="#DejaVuSans-6e" transform="translate(653.173828 0)"/>
      <use xlink:href="#DejaVuSans-63" transform="translate(716.552734 0)"/>
      <use xlink:href="#DejaVuSans-61" transform="translate(771.533203 0)"/>
      <use xlink:href="#DejaVuSans-74" transform="translate(832.8125 0)"/>
      <use xlink:href="#DejaVuSans-69" transform="translate(872.021484 0)"/>
      <use xlink:href="#DejaVuSans-6f" transform="translate(899.804688 0)"/>
      <use xlink:href="#DejaVuSans-6e" transform="translate(960.986328 0)"/>
     </g>
    </g>
    <g id="line2d_33">
     <path d="M 279.284687 51.773053 
L 289.284687 51.773053 
L 299.284687 51.773053 
" style="fill: none; stroke: #ff7f0e; stroke-width: 2; stroke-linecap: square"/>
     <g>
      <use xlink:href="#me0d3ad4f14" x="289.284687" y="51.773053" style="fill: #ff7f0e; stroke: #ff7f0e"/>
     </g>
    </g>
    <g id="text_19">
     <!-- quadratic_exponential -->
     <g style="fill: #e5edf7" transform="translate(307.284687 55.273053) scale(0.1 -0.1)">
      <defs>
       <path id="DejaVuSans-71" d="M 947 1747 
Q 947 1113 1208 752 
Q 1469 391 1925 391 
Q 2381 391 2643 752 
Q 2906 1113 2906 1747 
Q 2906 2381 2643 2742 
Q 2381 3103 1925 3103 
Q 1469 3103 1208 2742 
Q 947 2381 947 1747 
z
M 2906 525 
Q 2725 213 2448 61 
Q 2172 -91 1784 -91 
Q 1150 -91 751 415 
Q 353 922 353 1747 
Q 353 2572 751 3078 
Q 1150 3584 1784 3584 
Q 2172 3584 2448 3432 
Q 2725 3281 2906 2969 
L 2906 3500 
L 3481 3500 
L 3481 -1331 
L 2906 -1331 
L 2906 525 
z
" transform="scale(0.015625)"/>
       <path id="DejaVuSans-64" d="M 2906 2969 
L 2906 4863 
L 3481 4863 
L 3481 0 
L 2906 0 
L 2906 525 
Q 2725 213 2448 61 
Q 2172 -91 1784 -91 
Q 1150 -91 751 415 
Q 353 922 353 1747 
Q 353 2572 751 3078 
Q 1150 3584 1784 3584 
Q 2172 3584 2448 3432 
Q 2725 3281 2906 2969 
z
M 947 1747 
Q 947 1113 1208 752 
Q 1469 391 1925 391 
Q 2381 391 2643 752 
Q 2906 1113 2906 1747 
Q 2906 2381 2643 2742 
Q 2381 3103 1925 3103 
Q 1469 3103 1208 2742 
Q 947 2381 947 1747 
z
" transform="scale(0.015625)"/>
       <path id="DejaVuSans-78" d="M 3513 3500 
L 2247 1797 
L 3578 0 
L 2900 0 
L 1881 1375 
L 863 0 
L 184 0 
L 1544 1831 
L 300 3500 
L 978 3500 
L 1906 2253 
L 2834 3500 
L 3513 3500 
z
" transform="scale(0.015625)"/>
      </defs>
      <use xlink:href="#DejaVuSans-71"/>
      <use xlink:href="#DejaVuSans-75" transform="translate(63.476562 0)"/>
      <use xlink:href="#DejaVuSans-61" transform="translate(126.855469 0)"/>
      <use xlink:href="#DejaVuSans-64" transform="translate(188.134766 0)"/>
      <use xlink:href="#DejaVuSans-72" transform="translate(251.611328 0)"/>
      <use xlink:href="#DejaVuSans-61" transform="translate(292.724609 0)"/>
      <use xlink:href="#DejaVuSans-74" transform="translate(354.003906 0)"/>
      <use xlink:href="#DejaVuSans-69" transform="translate(393.212891 0)"/>
      <use xlink:href="#DejaVuSans-63" transform="translate(420.996094 0)"/>
      <use xlink:href="#DejaVuSans-5f" transform="translate(475.976562 0)"/>
      <use xlink:href="#DejaVuSans-65" transform="translate(525.976562 0)"/>
      <use xlink:href="#DejaVuSans-78" transform="translate(585.75 0)"/>
      <use xlink:href="#DejaVuSans-70" transform="translate(644.929688 0)"/>
      <use xlink:href="#DejaVuSans-6f" transform="translate(708.40625 0)"/>
      <use xlink:href="#DejaVuSans-6e" transform="translate(769.587891 0)"/>
      <use xlink:href="#DejaVuSans-65" transform="translate(832.966797 0)"/>
      <use xlink:href="#DejaVuSans-6e" transform="translate(894.490234 0)"/>
      <use xlink:href="#DejaVuSans-74" transform="translate(957.869141 0)"/>
      <use xlink:href="#DejaVuSans-69" transform="translate(997.078125 0)"/>
      <use xlink:href="#DejaVuSans-61" transform="translate(1024.861328 0)"/>
      <use xlink:href="#DejaVuSans-6c" transform="translate(1086.140625 0)"/>
     </g>
    </g>
   </g>
  </g>
  <g id="axes_2">
   <g id="patch_6">
    <path d="M 462.724375 288.011323 
L 860.99976 288.011323 
L 860.99976 23.718365 
L 462.724375 23.718365 
z
" style="fill: #0f172a"/>
   </g>
   <g id="matplotlib.axis_3">
    <g id="xtick_7">
     <g id="line2d_34">
      <path d="M 474.876198 288.011323 
L 474.876198 23.718365 
" clip-path="url(#p13d8f7adcd)" style="fill: none; stroke-dasharray: 2.96,1.28; stroke-dashoffset: 0; stroke: #7c8ba0; stroke-opacity: 0.25; stroke-width: 0.8"/>
     </g>
     <g id="line2d_35">
      <g>
       <use xlink:href="#m33e07cb989" x="474.876198" y="288.011323" style="fill: #e5edf7; stroke: #e5edf7; stroke-width: 0.8"/>
      </g>
     </g>
     <g id="text_20">
      <!-- 0.00 -->
      <g style="fill: #e5edf7" transform="translate(464.856667 301.849916) scale(0.09 -0.09)">
       <defs>
        <path id="DejaVuSans-2e" d="M 684 794 
L 1344 794 
L 1344 0 
L 684 0 
L 684 794 
z
" transform="scale(0.015625)"/>
       </defs>
       <use xlink:href="#DejaVuSans-30"/>
       <use xlink:href="#DejaVuSans-2e" transform="translate(63.623047 0)"/>
       <use xlink:href="#DejaVuSans-30" transform="translate(95.410156 0)"/>
       <use xlink:href="#DejaVuSans-30" transform="translate(159.033203 0)"/>
      </g>
     </g>
    </g>
    <g id="xtick_8">
     <g id="line2d_36">
      <path d="M 525.808448 288.011323 
L 525.808448 23.718365 
" clip-path="url(#p13d8f7adcd)" style="fill: none; stroke-dasharray: 2.96,1.28; stroke-dashoffset: 0; stroke: #7c8ba0; stroke-opacity: 0.25; stroke-width: 0.8"/>
     </g>
     <g id="line2d_37">
      <g>
       <use xlink:href="#m33e07cb989" x="525.808448" y="288.011323" style="fill: #e5edf7; stroke: #e5edf7; stroke-width: 0.8"/>
      </g>
     </g>
     <g id="text_21">
      <!-- 0.02 -->
      <g style="fill: #e5edf7" transform="translate(515.788917 301.849916) scale(0.09 -0.09)">
       <use xlink:href="#DejaVuSans-30"/>
       <use xlink:href="#DejaVuSans-2e" transform="translate(63.623047 0)"/>
       <use xlink:href="#DejaVuSans-30" transform="translate(95.410156 0)"/>
       <use xlink:href="#DejaVuSans-32" transform="translate(159.033203 0)"/>
      </g>
     </g>
    </g>
    <g id="xtick_9">
     <g id="line2d_38">
      <path d="M 576.740697 288.011323 
L 576.740697 23.718365 
" clip-path="url(#p13d8f7adcd)" style="fill: none; stroke-dasharray: 2.96,1.28; stroke-dashoffset: 0; stroke: #7c8ba0; stroke-opacity: 0.25; stroke-width: 0.8"/>
     </g>
     <g id="line2d_39">
      <g>
       <use xlink:href="#m33e07cb989" x="576.740697" y="288.011323" style="fill: #e5edf7; stroke: #e5edf7; stroke-width: 0.8"/>
      </g>
     </g>
     <g id="text_22">
      <!-- 0.04 -->
      <g style="fill: #e5edf7" transform="translate(566.721166 301.849916) scale(0.09 -0.09)">
       <use xlink:href="#DejaVuSans-30"/>
       <use xlink:href="#DejaVuSans-2e" transform="translate(63.623047 0)"/>
       <use xlink:href="#DejaVuSans-30" transform="translate(95.410156 0)"/>
       <use xlink:href="#DejaVuSans-34" transform="translate(159.033203 0)"/>
      </g>
     </g>
    </g>
    <g id="xtick_10">
     <g id="line2d_40">
      <path d="M 627.672946 288.011323 
L 627.672946 23.718365 
" clip-path="url(#p13d8f7adcd)" style="fill: none; stroke-dasharray: 2.96,1.28; stroke-dashoffset: 0; stroke: #7c8ba0; stroke-opacity: 0.25; stroke-width: 0.8"/>
     </g>
     <g id="line2d_41">
      <g>
       <use xlink:href="#m33e07cb989" x="627.672946" y="288.011323" style="fill: #e5edf7; stroke: #e5edf7; stroke-width: 0.8"/>
      </g>
     </g>
     <g id="text_23">
      <!-- 0.06 -->
      <g style="fill: #e5edf7" transform="translate(617.653415 301.849916) scale(0.09 -0.09)">
       <use xlink:href="#DejaVuSans-30"/>
       <use xlink:href="#DejaVuSans-2e" transform="translate(63.623047 0)"/>
       <use xlink:href="#DejaVuSans-30" transform="translate(95.410156 0)"/>
       <use xlink:href="#DejaVuSans-36" transform="translate(159.033203 0)"/>
      </g>
     </g>
    </g>
    <g id="xtick_11">
     <g id="line2d_42">
      <path d="M 678.605196 288.011323 
L 678.605196 23.718365 
" clip-path="url(#p13d8f7adcd)" style="fill: none; stroke-dasharray: 2.96,1.28; stroke-dashoffset: 0; stroke: #7c8ba0; stroke-opacity: 0.25; stroke-width: 0.8"/>
     </g>
     <g id="line2d_43">
      <g>
       <use xlink:href="#m33e07cb989" x="678.605196" y="288.011323" style="fill: #e5edf7; stroke: #e5edf7; stroke-width: 0.8"/>
      </g>
     </g>
     <g id="text_24">
      <!-- 0.08 -->
      <g style="fill: #e5edf7" transform="translate(668.585664 301.849916) scale(0.09 -0.09)">
       <defs>
        <path id="DejaVuSans-38" d="M 2034 2216 
Q 1584 2216 1326 1975 
Q 1069 1734 1069 1313 
Q 1069 891 1326 650 
Q 1584 409 2034 409 
Q 2484 409 2743 651 
Q 3003 894 3003 1313 
Q 3003 1734 2745 1975 
Q 2488 2216 2034 2216 
z
M 1403 2484 
Q 997 2584 770 2862 
Q 544 3141 544 3541 
Q 544 4100 942 4425 
Q 1341 4750 2034 4750 
Q 2731 4750 3128 4425 
Q 3525 4100 3525 3541 
Q 3525 3141 3298 2862 
Q 3072 2584 2669 2484 
Q 3125 2378 3379 2068 
Q 3634 1759 3634 1313 
Q 3634 634 3220 271 
Q 2806 -91 2034 -91 
Q 1263 -91 848 271 
Q 434 634 434 1313 
Q 434 1759 690 2068 
Q 947 2378 1403 2484 
z
M 1172 3481 
Q 1172 3119 1398 2916 
Q 1625 2713 2034 2713 
Q 2441 2713 2670 2916 
Q 2900 3119 2900 3481 
Q 2900 3844 2670 4047 
Q 2441 4250 2034 4250 
Q 1625 4250 1398 4047 
Q 1172 3844 1172 3481 
z
" transform="scale(0.015625)"/>
       </defs>
       <use xlink:href="#DejaVuSans-30"/>
       <use xlink:href="#DejaVuSans-2e" transform="translate(63.623047 0)"/>
       <use xlink:href="#DejaVuSans-30" transform="translate(95.410156 0)"/>
       <use xlink:href="#DejaVuSans-38" transform="translate(159.033203 0)"/>
      </g>
     </g>
    </g>
    <g id="xtick_12">
     <g id="line2d_44">
      <path d="M 729.537445 288.011323 
L 729.537445 23.718365 
" clip-path="url(#p13d8f7adcd)" style="fill: none; stroke-dasharray: 2.96,1.28; stroke-dashoffset: 0; stroke: #7c8ba0; stroke-opacity: 0.25; stroke-width: 0.8"/>
     </g>
     <g id="line2d_45">
      <g>
       <use xlink:href="#m33e07cb989" x="729.537445" y="288.011323" style="fill: #e5edf7; stroke: #e5edf7; stroke-width: 0.8"/>
      </g>
     </g>
     <g id="text_25">
      <!-- 0.10 -->
      <g style="fill: #e5edf7" transform="translate(719.517914 301.849916) scale(0.09 -0.09)">
       <use xlink:href="#DejaVuSans-30"/>
       <use xlink:href="#DejaVuSans-2e" transform="translate(63.623047 0)"/>
       <use xlink:href="#DejaVuSans-31" transform="translate(95.410156 0)"/>
       <use xlink:href="#DejaVuSans-30" transform="translate(159.033203 0)"/>
      </g>
     </g>
    </g>
    <g id="xtick_13">
     <g id="line2d_46">
      <path d="M 780.469694 288.011323 
L 780.469694 23.718365 
" clip-path="url(#p13d8f7adcd)" style="fill: none; stroke-dasharray: 2.96,1.28; stroke-dashoffset: 0; stroke: #7c8ba0; stroke-opacity: 0.25; stroke-width: 0.8"/>
     </g>
     <g id="line2d_47">
      <g>
       <use xlink:href="#m33e07cb989" x="780.469694" y="288.011323" style="fill: #e5edf7; stroke: #e5edf7; stroke-width: 0.8"/>
      </g>
     </g>
     <g id="text_26">
      <!-- 0.12 -->
      <g style="fill: #e5edf7" transform="translate(770.450163 301.849916) scale(0.09 -0.09)">
       <use xlink:href="#DejaVuSans-30"/>
       <use xlink:href="#DejaVuSans-2e" transform="translate(63.623047 0)"/>
       <use xlink:href="#DejaVuSans-31" transform="translate(95.410156 0)"/>
       <use xlink:href="#DejaVuSans-32" transform="translate(159.033203 0)"/>
      </g>
     </g>
    </g>
    <g id="xtick_14">
     <g id="line2d_48">
      <path d="M 831.401943 288.011323 
L 831.401943 23.718365 
" clip-path="url(#p13d8f7adcd)" style="fill: none; stroke-dasharray: 2.96,1.28; stroke-dashoffset: 0; stroke: #7c8ba0; stroke-opacity: 0.25; stroke-width: 0.8"/>
     </g>
     <g id="line2d_49">
      <g>
       <use xlink:href="#m33e07cb989" x="831.401943" y="288.011323" style="fill: #e5edf7; stroke: #e5edf7; stroke-width: 0.8"/>
      </g>
     </g>
     <g id="text_27">
      <!-- 0.14 -->
      <g style="fill: #e5edf7" transform="translate(821.382412 301.849916) scale(0.09 -0.09)">
       <use xlink:href="#DejaVuSans-30"/>
       <use xlink:href="#DejaVuSans-2e" transform="translate(63.623047 0)"/>
       <use xlink:href="#DejaVuSans-31" transform="translate(95.410156 0)"/>
       <use xlink:href="#DejaVuSans-34" transform="translate(159.033203 0)"/>
      </g>
     </g>
    </g>
    <g id="text_28">
     <!-- Mean runtime (seconds) -->
     <g style="fill: #e5edf7" transform="translate(601.03238 315.320073) scale(0.1 -0.1)">
      <defs>
       <path id="DejaVuSans-6d" d="M 3328 2828 
Q 3544 3216 3844 3400 
Q 4144 3584 4550 3584 
Q 5097 3584 5394 3201 
Q 5691 2819 5691 2113 
L 5691 0 
L 5113 0 
L 5113 2094 
Q 5113 2597 4934 2840 
Q 4756 3084 4391 3084 
Q 3944 3084 3684 2787 
Q 3425 2491 3425 1978 
L 3425 0 
L 2847 0 
L 2847 2094 
Q 2847 2600 2669 2842 
Q 2491 3084 2119 3084 
Q 1678 3084 1418 2786 
Q 1159 2488 1159 1978 
L 1159 0 
L 581 0 
L 581 3500 
L 1159 3500 
L 1159 2956 
Q 1356 3278 1631 3431 
Q 1906 3584 2284 3584 
Q 2666 3584 2933 3390 
Q 3200 3197 3328 2828 
z
" transform="scale(0.015625)"/>
      </defs>
      <use xlink:href="#DejaVuSans-4d"/>
      <use xlink:href="#DejaVuSans-65" transform="translate(86.279297 0)"/>
      <use xlink:href="#DejaVuSans-61" transform="translate(147.802734 0)"/>
      <use xlink:href="#DejaVuSans-6e" transform="translate(209.082031 0)"/>
      <use xlink:href="#DejaVuSans-20" transform="translate(272.460938 0)"/>
      <use xlink:href="#DejaVuSans-72" transform="translate(304.248047 0)"/>
      <use xlink:href="#DejaVuSans-75" transform="translate(345.361328 0)"/>
      <use xlink:href="#DejaVuSans-6e" transform="translate(408.740234 0)"/>
      <use xlink:href="#DejaVuSans-74" transform="translate(472.119141 0)"/>
      <use xlink:href="#DejaVuSans-69" transform="translate(511.328125 0)"/>
      <use xlink:href="#DejaVuSans-6d" transform="translate(539.111328 0)"/>
      <use xlink:href="#DejaVuSans-65" transform="translate(636.523438 0)"/>
      <use xlink:href="#DejaVuSans-20" transform="translate(698.046875 0)"/>
      <use xlink:href="#DejaVuSans-28" transform="translate(729.833984 0)"/>
      <use xlink:href="#DejaVuSans-73" transform="translate(768.847656 0)"/>
      <use xlink:href="#DejaVuSans-65" transform="translate(820.947266 0)"/>
      <use xlink:href="#DejaVuSans-63" transform="translate(882.470703 0)"/>
      <use xlink:href="#DejaVuSans-6f" transform="translate(937.451172 0)"/>
      <use xlink:href="#DejaVuSans-6e" transform="translate(998.632812 0)"/>
      <use xlink:href="#DejaVuSans-64" transform="translate(1062.011719 0)"/>
      <use xlink:href="#DejaVuSans-73" transform="translate(1125.488281 0)"/>
      <use xlink:href="#DejaVuSans-29" transform="translate(1177.587891 0)"/>
     </g>
    </g>
   </g>
   <g id="matplotlib.axis_4">
    <g id="ytick_9">
     <g id="line2d_50">
      <path d="M 462.724375 277.264217 
L 860.99976 277.264217 
" clip-path="url(#p13d8f7adcd)" style="fill: none; stroke-dasharray: 2.96,1.28; stroke-dashoffset: 0; stroke: #7c8ba0; stroke-opacity: 0.25; stroke-width: 0.8"/>
     </g>
     <g id="line2d_51">
      <g>
       <use xlink:href="#m0f61ffd276" x="462.724375" y="277.264217" style="fill: #e5edf7; stroke: #e5edf7; stroke-width: 0.8"/>
      </g>
     </g>
     <g id="text_29">
      <!-- 0 -->
      <g style="fill: #e5edf7" transform="translate(449.998125 280.683514) scale(0.09 -0.09)">
       <use xlink:href="#DejaVuSans-30"/>
      </g>
     </g>
    </g>
    <g id="ytick_10">
     <g id="line2d_52">
      <path d="M 462.724375 241.874748 
L 860.99976 241.874748 
" clip-path="url(#p13d8f7adcd)" style="fill: none; stroke-dasharray: 2.96,1.28; stroke-dashoffset: 0; stroke: #7c8ba0; stroke-opacity: 0.25; stroke-width: 0.8"/>
     </g>
     <g id="line2d_53">
      <g>
       <use xlink:href="#m0f61ffd276" x="462.724375" y="241.874748" style="fill: #e5edf7; stroke: #e5edf7; stroke-width: 0.8"/>
      </g>
     </g>
     <g id="text_30">
      <!-- 1 -->
      <g style="fill: #e5edf7" transform="translate(449.998125 245.294045) scale(0.09 -0.09)">
       <use xlink:href="#DejaVuSans-31"/>
      </g>
     </g>
    </g>
    <g id="ytick_11">
     <g id="line2d_54">
      <path d="M 462.724375 206.485279 
L 860.99976 206.485279 
" clip-path="url(#p13d8f7adcd)" style="fill: none; stroke-dasharray: 2.96,1.28; stroke-dashoffset: 0; stroke: #7c8ba0; stroke-opacity: 0.25; stroke-width: 0.8"/>
     </g>
     <g id="line2d_55">
      <g>
       <use xlink:href="#m0f61ffd276" x="462.724375" y="206.485279" style="fill: #e5edf7; stroke: #e5edf7; stroke-width: 0.8"/>
      </g>
     </g>
     <g id="text_31">
      <!-- 2 -->
      <g style="fill: #e5edf7" transform="translate(449.998125 209.904576) scale(0.09 -0.09)">
       <use xlink:href="#DejaVuSans-32"/>
      </g>
     </g>
    </g>
    <g id="ytick_12">
     <g id="line2d_56">
      <path d="M 462.724375 171.09581 
L 860.99976 171.09581 
" clip-path="url(#p13d8f7adcd)" style="fill: none; stroke-dasharray: 2.96,1.28; stroke-dashoffset: 0; stroke: #7c8ba0; stroke-opacity: 0.25; stroke-width: 0.8"/>
     </g>
     <g id="line2d_57">
      <g>
       <use xlink:href="#m0f61ffd276" x="462.724375" y="171.09581" style="fill: #e5edf7; stroke: #e5edf7; stroke-width: 0.8"/>
      </g>
     </g>
     <g id="text_32">
      <!-- 3 -->
      <g style="fill: #e5edf7" transform="translate(449.998125 174.515107) scale(0.09 -0.09)">
       <use xlink:href="#DejaVuSans-33"/>
      </g>
     </g>
    </g>
    <g id="ytick_13">
     <g id="line2d_58">
      <path d="M 462.724375 135.706341 
L 860.99976 135.706341 
" clip-path="url(#p13d8f7adcd)" style="fill: none; stroke-dasharray: 2.96,1.28; stroke-dashoffset: 0; stroke: #7c8ba0; stroke-opacity: 0.25; stroke-width: 0.8"/>
     </g>
     <g id="line2d_59">
      <g>
       <use xlink:href="#m0f61ffd276" x="462.724375" y="135.706341" style="fill: #e5edf7; stroke: #e5edf7; stroke-width: 0.8"/>
      </g>
     </g>
     <g id="text_33">
      <!-- 4 -->
      <g style="fill: #e5edf7" transform="translate(449.998125 139.125638) scale(0.09 -0.09)">
       <use xlink:href="#DejaVuSans-34"/>
      </g>
     </g>
    </g>
    <g id="ytick_14">
     <g id="line2d_60">
      <path d="M 462.724375 100.316872 
L 860.99976 100.316872 
" clip-path="url(#p13d8f7adcd)" style="fill: none; stroke-dasharray: 2.96,1.28; stroke-dashoffset: 0; stroke: #7c8ba0; stroke-opacity: 0.25; stroke-width: 0.8"/>
     </g>
     <g id="line2d_61">
      <g>
       <use xlink:href="#m0f61ffd276" x="462.724375" y="100.316872" style="fill: #e5edf7; stroke: #e5edf7; stroke-width: 0.8"/>
      </g>
     </g>
     <g id="text_34">
      <!-- 5 -->
      <g style="fill: #e5edf7" transform="translate(449.998125 103.736169) scale(0.09 -0.09)">
       <use xlink:href="#DejaVuSans-35"/>
      </g>
     </g>
    </g>
    <g id="ytick_15">
     <g id="line2d_62">
      <path d="M 462.724375 64.927403 
L 860.99976 64.927403 
" clip-path="url(#p13d8f7adcd)" style="fill: none; stroke-dasharray: 2.96,1.28; stroke-dashoffset: 0; stroke: #7c8ba0; stroke-opacity: 0.25; stroke-width: 0.8"/>
     </g>
     <g id="line2d_63">
      <g>
       <use xlink:href="#m0f61ffd276" x="462.724375" y="64.927403" style="fill: #e5edf7; stroke: #e5edf7; stroke-width: 0.8"/>
      </g>
     </g>
     <g id="text_35">
      <!-- 6 -->
      <g style="fill: #e5edf7" transform="translate(449.998125 68.3467) scale(0.09 -0.09)">
       <use xlink:href="#DejaVuSans-36"/>
      </g>
     </g>
    </g>
    <g id="ytick_16">
     <g id="line2d_64">
      <path d="M 462.724375 29.537934 
L 860.99976 29.537934 
" clip-path="url(#p13d8f7adcd)" style="fill: none; stroke-dasharray: 2.96,1.28; stroke-dashoffset: 0; stroke: #7c8ba0; stroke-opacity: 0.25; stroke-width: 0.8"/>
     </g>
     <g id="line2d_65">
      <g>
       <use xlink:href="#m0f61ffd276" x="462.724375" y="29.537934" style="fill: #e5edf7; stroke: #e5edf7; stroke-width: 0.8"/>
      </g>
     </g>
     <g id="text_36">
      <!-- 7 -->
      <g style="fill: #e5edf7" transform="translate(449.998125 32.957231) scale(0.09 -0.09)">
       <use xlink:href="#DejaVuSans-37"/>
      </g>
     </g>
    </g>
    <g id="text_37">
     <!-- Mean abs error -->
     <g style="fill: #e5edf7" transform="translate(443.918437 193.611719) rotate(-90) scale(0.1 -0.1)">
      <defs>
       <path id="DejaVuSans-62" d="M 3116 1747 
Q 3116 2381 2855 2742 
Q 2594 3103 2138 3103 
Q 1681 3103 1420 2742 
Q 1159 2381 1159 1747 
Q 1159 1113 1420 752 
Q 1681 391 2138 391 
Q 2594 391 2855 752 
Q 3116 1113 3116 1747 
z
M 1159 2969 
Q 1341 3281 1617 3432 
Q 1894 3584 2278 3584 
Q 2916 3584 3314 3078 
Q 3713 2572 3713 1747 
Q 3713 922 3314 415 
Q 2916 -91 2278 -91 
Q 1894 -91 1617 61 
Q 1341 213 1159 525 
L 1159 0 
L 581 0 
L 581 4863 
L 1159 4863 
L 1159 2969 
z
" transform="scale(0.015625)"/>
      </defs>
      <use xlink:href="#DejaVuSans-4d"/>
      <use xlink:href="#DejaVuSans-65" transform="translate(86.279297 0)"/>
      <use xlink:href="#DejaVuSans-61" transform="translate(147.802734 0)"/>
      <use xlink:href="#DejaVuSans-6e" transform="translate(209.082031 0)"/>
      <use xlink:href="#DejaVuSans-20" transform="translate(272.460938 0)"/>
      <use xlink:href="#DejaVuSans-61" transform="translate(304.248047 0)"/>
      <use xlink:href="#DejaVuSans-62" transform="translate(365.527344 0)"/>
      <use xlink:href="#DejaVuSans-73" transform="translate(429.003906 0)"/>
      <use xlink:href="#DejaVuSans-20" transform="translate(481.103516 0)"/>
      <use xlink:href="#DejaVuSans-65" transform="translate(512.890625 0)"/>
      <use xlink:href="#DejaVuSans-72" transform="translate(574.414062 0)"/>
      <use xlink:href="#DejaVuSans-72" transform="translate(613.777344 0)"/>
      <use xlink:href="#DejaVuSans-6f" transform="translate(652.640625 0)"/>
      <use xlink:href="#DejaVuSans-72" transform="translate(713.822266 0)"/>
     </g>
    </g>
   </g>
   <g id="line2d_66">
    <path d="M 480.827802 35.731681 
L 485.620441 56.324591 
L 491.786724 87.422416 
L 505.369336 113.162955 
L 531.349792 134.222328 
" clip-path="url(#p13d8f7adcd)" style="fill: none; stroke: #1f77b4; stroke-width: 2; stroke-linecap: square"/>
    <g clip-path="url(#p13d8f7adcd)">
     <use xlink:href="#m2f6ece1c38" x="480.827802" y="35.731681" style="fill: #1f77b4; stroke: #1f77b4"/>
     <use xlink:href="#m2f6ece1c38" x="485.620441" y="56.324591" style="fill: #1f77b4; stroke: #1f77b4"/>
     <use xlink:href="#m2f6ece1c38" x="491.786724" y="87.422416" style="fill: #1f77b4; stroke: #1f77b4"/>
     <use xlink:href="#m2f6ece1c38" x="505.369336" y="113.162955" style="fill: #1f77b4; stroke: #1f77b4"/>
     <use xlink:href="#m2f6ece1c38" x="531.349792" y="134.222328" style="fill: #1f77b4; stroke: #1f77b4"/>
    </g>
   </g>
   <g id="line2d_67">
    <path d="M 496.6651 269.42667 
L 513.505423 275.998006 
L 560.286779 272.025545 
L 653.750258 274.768789 
L 842.896333 275.881625 
" clip-path="url(#p13d8f7adcd)" style="fill: none; stroke: #ff7f0e; stroke-width: 2; stroke-linecap: square"/>
    <g clip-path="url(#p13d8f7adcd)">
     <use xlink:href="#me0d3ad4f14" x="496.6651" y="269.42667" style="fill: #ff7f0e; stroke: #ff7f0e"/>
     <use xlink:href="#me0d3ad4f14" x="513.505423" y="275.998006" style="fill: #ff7f0e; stroke: #ff7f0e"/>
     <use xlink:href="#me0d3ad4f14" x="560.286779" y="272.025545" style="fill: #ff7f0e; stroke: #ff7f0e"/>
     <use xlink:href="#me0d3ad4f14" x="653.750258" y="274.768789" style="fill: #ff7f0e; stroke: #ff7f0e"/>
     <use xlink:href="#me0d3ad4f14" x="842.896333" y="275.881625" style="fill: #ff7f0e; stroke: #ff7f0e"/>
    </g>
   </g>
   <g id="patch_7">
    <path d="M 462.724375 288.011323 
L 462.724375 23.718365 
" style="fill: none; stroke: #94a3b8; stroke-width: 0.8; stroke-linejoin: miter; stroke-linecap: square"/>
   </g>
   <g id="patch_8">
    <path d="M 462.724375 288.011323 
L 860.99976 288.011323 
" style="fill: none; stroke: #94a3b8; stroke-width: 0.8; stroke-linejoin: miter; stroke-linecap: square"/>
   </g>
   <g id="text_38">
    <!-- Runtime vs error -->
    <g style="fill: #e5edf7" transform="translate(604.725192 15.718365) scale(0.12 -0.12)">
     <defs>
      <path id="DejaVuSans-Bold-52" d="M 2297 2597 
Q 2675 2597 2839 2737 
Q 3003 2878 3003 3200 
Q 3003 3519 2839 3656 
Q 2675 3794 2297 3794 
L 1791 3794 
L 1791 2597 
L 2297 2597 
z
M 1791 1766 
L 1791 0 
L 588 0 
L 588 4666 
L 2425 4666 
Q 3347 4666 3776 4356 
Q 4206 4047 4206 3378 
Q 4206 2916 3982 2619 
Q 3759 2322 3309 2181 
Q 3556 2125 3751 1926 
Q 3947 1728 4147 1325 
L 4800 0 
L 3519 0 
L 2950 1159 
Q 2778 1509 2601 1637 
Q 2425 1766 2131 1766 
L 1791 1766 
z
" transform="scale(0.015625)"/>
      <path id="DejaVuSans-Bold-75" d="M 500 1363 
L 500 3500 
L 1625 3500 
L 1625 3150 
Q 1625 2866 1622 2436 
Q 1619 2006 1619 1863 
Q 1619 1441 1641 1255 
Q 1663 1069 1716 984 
Q 1784 875 1895 815 
Q 2006 756 2150 756 
Q 2500 756 2700 1025 
Q 2900 1294 2900 1772 
L 2900 3500 
L 4019 3500 
L 4019 0 
L 2900 0 
L 2900 506 
Q 2647 200 2364 54 
Q 2081 -91 1741 -91 
Q 1134 -91 817 281 
Q 500 653 500 1363 
z
" transform="scale(0.015625)"/>
      <path id="DejaVuSans-Bold-6e" d="M 4056 2131 
L 4056 0 
L 2931 0 
L 2931 347 
L 2931 1631 
Q 2931 2084 2911 2256 
Q 2891 2428 2841 2509 
Q 2775 2619 2662 2680 
Q 2550 2741 2406 2741 
Q 2056 2741 1856 2470 
Q 1656 2200 1656 1722 
L 1656 0 
L 538 0 
L 538 3500 
L 1656 3500 
L 1656 2988 
Q 1909 3294 2193 3439 
Q 2478 3584 2822 3584 
Q 3428 3584 3742 3212 
Q 4056 2841 4056 2131 
z
" transform="scale(0.015625)"/>
      <path id="DejaVuSans-Bold-72" d="M 3138 2547 
Q 2991 2616 2845 2648 
Q 2700 2681 2553 2681 
Q 2122 2681 1889 2404 
Q 1656 2128 1656 1613 
L 1656 0 
L 538 0 
L 538 3500 
L 1656 3500 
L 1656 2925 
Q 1872 3269 2151 3426 
Q 2431 3584 2822 3584 
Q 2878 3584 2943 3579 
Q 3009 3575 3134 3559 
L 3138 2547 
z
" transform="scale(0.015625)"/>
      <path id="DejaVuSans-Bold-6f" d="M 2203 2784 
Q 1831 2784 1636 2517 
Q 1441 2250 1441 1747 
Q 1441 1244 1636 976 
Q 1831 709 2203 709 
Q 2569 709 2762 976 
Q 2956 1244 2956 1747 
Q 2956 2250 2762 2517 
Q 2569 2784 2203 2784 
z
M 2203 3584 
Q 3106 3584 3614 3096 
Q 4122 2609 4122 1747 
Q 4122 884 3614 396 
Q 3106 -91 2203 -91 
Q 1297 -91 786 396 
Q 275 884 275 1747 
Q 275 2609 786 3096 
Q 1297 3584 2203 3584 
z
" transform="scale(0.015625)"/>
     </defs>
     <use xlink:href="#DejaVuSans-Bold-52"/>
     <use xlink:href="#DejaVuSans-Bold-75" transform="translate(77.001953 0)"/>
     <use xlink:href="#DejaVuSans-Bold-6e" transform="translate(148.193359 0)"/>
     <use xlink:href="#DejaVuSans-Bold-74" transform="translate(219.384766 0)"/>
     <use xlink:href="#DejaVuSans-Bold-69" transform="translate(267.1875 0)"/>
     <use xlink:href="#DejaVuSans-Bold-6d" transform="translate(301.464844 0)"/>
     <use xlink:href="#DejaVuSans-Bold-65" transform="translate(405.664062 0)"/>
     <use xlink:href="#DejaVuSans-Bold-20" transform="translate(473.486328 0)"/>
     <use xlink:href="#DejaVuSans-Bold-76" transform="translate(508.300781 0)"/>
     <use xlink:href="#DejaVuSans-Bold-73" transform="translate(573.486328 0)"/>
     <use xlink:href="#DejaVuSans-Bold-20" transform="translate(633.007812 0)"/>
     <use xlink:href="#DejaVuSans-Bold-65" transform="translate(667.822266 0)"/>
     <use xlink:href="#DejaVuSans-Bold-72" transform="translate(735.644531 0)"/>
     <use xlink:href="#DejaVuSans-Bold-72" transform="translate(784.960938 0)"/>
     <use xlink:href="#DejaVuSans-Bold-6f" transform="translate(834.277344 0)"/>
     <use xlink:href="#DejaVuSans-Bold-72" transform="translate(902.978516 0)"/>
    </g>
   </g>
   <g id="legend_2">
    <g id="patch_9">
     <path d="M 710.604447 61.630865 
L 853.99976 61.630865 
Q 855.99976 61.630865 855.99976 59.630865 
L 855.99976 30.718365 
Q 855.99976 28.718365 853.99976 28.718365 
L 710.604447 28.718365 
Q 708.604447 28.718365 708.604447 30.718365 
L 708.604447 59.630865 
Q 708.604447 61.630865 710.604447 61.630865 
z
" style="fill: #162033; opacity: 0.95; stroke: #314056; stroke-linejoin: miter"/>
    </g>
    <g id="line2d_68">
     <path d="M 712.604447 36.816803 
L 722.604447 36.816803 
L 732.604447 36.816803 
" style="fill: none; stroke: #1f77b4; stroke-width: 2; stroke-linecap: square"/>
     <g>
      <use xlink:href="#m2f6ece1c38" x="722.604447" y="36.816803" style="fill: #1f77b4; stroke: #1f77b4"/>
     </g>
    </g>
    <g id="text_39">
     <!-- euler_full_truncation -->
     <g style="fill: #e5edf7" transform="translate(740.604447 40.316803) scale(0.1 -0.1)">
      <use xlink:href="#DejaVuSans-65"/>
      <use xlink:href="#DejaVuSans-75" transform="translate(61.523438 0)"/>
      <use xlink:href="#DejaVuSans-6c" transform="translate(124.902344 0)"/>
      <use xlink:href="#DejaVuSans-65" transform="translate(152.685547 0)"/>
      <use xlink:href="#DejaVuSans-72" transform="translate(214.208984 0)"/>
      <use xlink:href="#DejaVuSans-5f" transform="translate(255.322266 0)"/>
      <use xlink:href="#DejaVuSans-66" transform="translate(305.322266 0)"/>
      <use xlink:href="#DejaVuSans-75" transform="translate(340.527344 0)"/>
      <use xlink:href="#DejaVuSans-6c" transform="translate(403.90625 0)"/>
      <use xlink:href="#DejaVuSans-6c" transform="translate(431.689453 0)"/>
      <use xlink:href="#DejaVuSans-5f" transform="translate(459.472656 0)"/>
      <use xlink:href="#DejaVuSans-74" transform="translate(509.472656 0)"/>
      <use xlink:href="#DejaVuSans-72" transform="translate(548.681641 0)"/>
      <use xlink:href="#DejaVuSans-75" transform="translate(589.794922 0)"/>
      <use xlink:href="#DejaVuSans-6e" transform="translate(653.173828 0)"/>
      <use xlink:href="#DejaVuSans-63" transform="translate(716.552734 0)"/>
      <use xlink:href="#DejaVuSans-61" transform="translate(771.533203 0)"/>
      <use xlink:href="#DejaVuSans-74" transform="translate(832.8125 0)"/>
      <use xlink:href="#DejaVuSans-69" transform="translate(872.021484 0)"/>
      <use xlink:href="#DejaVuSans-6f" transform="translate(899.804688 0)"/>
      <use xlink:href="#DejaVuSans-6e" transform="translate(960.986328 0)"/>
     </g>
    </g>
    <g id="line2d_69">
     <path d="M 712.604447 51.773053 
L 722.604447 51.773053 
L 732.604447 51.773053 
" style="fill: none; stroke: #ff7f0e; stroke-width: 2; stroke-linecap: square"/>
     <g>
      <use xlink:href="#me0d3ad4f14" x="722.604447" y="51.773053" style="fill: #ff7f0e; stroke: #ff7f0e"/>
     </g>
    </g>
    <g id="text_40">
     <!-- quadratic_exponential -->
     <g style="fill: #e5edf7" transform="translate(740.604447 55.273053) scale(0.1 -0.1)">
      <use xlink:href="#DejaVuSans-71"/>
      <use xlink:href="#DejaVuSans-75" transform="translate(63.476562 0)"/>
      <use xlink:href="#DejaVuSans-61" transform="translate(126.855469 0)"/>
      <use xlink:href="#DejaVuSans-64" transform="translate(188.134766 0)"/>
      <use xlink:href="#DejaVuSans-72" transform="translate(251.611328 0)"/>
      <use xlink:href="#DejaVuSans-61" transform="translate(292.724609 0)"/>
      <use xlink:href="#DejaVuSans-74" transform="translate(354.003906 0)"/>
      <use xlink:href="#DejaVuSans-69" transform="translate(393.212891 0)"/>
      <use xlink:href="#DejaVuSans-63" transform="translate(420.996094 0)"/>
      <use xlink:href="#DejaVuSans-5f" transform="translate(475.976562 0)"/>
      <use xlink:href="#DejaVuSans-65" transform="translate(525.976562 0)"/>
      <use xlink:href="#DejaVuSans-78" transform="translate(585.75 0)"/>
      <use xlink:href="#DejaVuSans-70" transform="translate(644.929688 0)"/>
      <use xlink:href="#DejaVuSans-6f" transform="translate(708.40625 0)"/>
      <use xlink:href="#DejaVuSans-6e" transform="translate(769.587891 0)"/>
      <use xlink:href="#DejaVuSans-65" transform="translate(832.966797 0)"/>
      <use xlink:href="#DejaVuSans-6e" transform="translate(894.490234 0)"/>
      <use xlink:href="#DejaVuSans-74" transform="translate(957.869141 0)"/>
      <use xlink:href="#DejaVuSans-69" transform="translate(997.078125 0)"/>
      <use xlink:href="#DejaVuSans-61" transform="translate(1024.861328 0)"/>
      <use xlink:href="#DejaVuSans-6c" transform="translate(1086.140625 0)"/>
     </g>
    </g>
   </g>
  </g>
  <g id="text_41">
   <!-- Heston MC vs Fourier -->
   <g style="fill: #e5edf7" transform="translate(347.600781 13.517812) scale(0.14 -0.14)">
    <defs>
     <path id="DejaVuSans-Bold-48" d="M 588 4666 
L 1791 4666 
L 1791 2888 
L 3566 2888 
L 3566 4666 
L 4769 4666 
L 4769 0 
L 3566 0 
L 3566 1978 
L 1791 1978 
L 1791 0 
L 588 0 
L 588 4666 
z
" transform="scale(0.015625)"/>
     <path id="DejaVuSans-Bold-4d" d="M 588 4666 
L 2119 4666 
L 3181 2169 
L 4250 4666 
L 5778 4666 
L 5778 0 
L 4641 0 
L 4641 3413 
L 3566 897 
L 2803 897 
L 1728 3413 
L 1728 0 
L 588 0 
L 588 4666 
z
" transform="scale(0.015625)"/>
     <path id="DejaVuSans-Bold-43" d="M 4288 256 
Q 3956 84 3597 -3 
Q 3238 -91 2847 -91 
Q 1681 -91 1000 561 
Q 319 1213 319 2328 
Q 319 3447 1000 4098 
Q 1681 4750 2847 4750 
Q 3238 4750 3597 4662 
Q 3956 4575 4288 4403 
L 4288 3438 
Q 3953 3666 3628 3772 
Q 3303 3878 2944 3878 
Q 2300 3878 1931 3465 
Q 1563 3053 1563 2328 
Q 1563 1606 1931 1193 
Q 2300 781 2944 781 
Q 3303 781 3628 887 
Q 3953 994 4288 1222 
L 4288 256 
z
" transform="scale(0.015625)"/>
     <path id="DejaVuSans-Bold-46" d="M 588 4666 
L 3834 4666 
L 3834 3756 
L 1791 3756 
L 1791 2888 
L 3713 2888 
L 3713 1978 
L 1791 1978 
L 1791 0 
L 588 0 
L 588 4666 
z
" transform="scale(0.015625)"/>
    </defs>
    <use xlink:href="#DejaVuSans-Bold-48"/>
    <use xlink:href="#DejaVuSans-Bold-65" transform="translate(83.691406 0)"/>
    <use xlink:href="#DejaVuSans-Bold-73" transform="translate(151.513672 0)"/>
    <use xlink:href="#DejaVuSans-Bold-74" transform="translate(211.035156 0)"/>
    <use xlink:href="#DejaVuSans-Bold-6f" transform="translate(258.837891 0)"/>
    <use xlink:href="#DejaVuSans-Bold-6e" transform="translate(327.539062 0)"/>
    <use xlink:href="#DejaVuSans-Bold-20" transform="translate(398.730469 0)"/>
    <use xlink:href="#DejaVuSans-Bold-4d" transform="translate(433.544922 0)"/>
    <use xlink:href="#DejaVuSans-Bold-43" transform="translate(533.056641 0)"/>
    <use xlink:href="#DejaVuSans-Bold-20" transform="translate(606.445312 0)"/>
    <use xlink:href="#DejaVuSans-Bold-76" transform="translate(641.259766 0)"/>
    <use xlink:href="#DejaVuSans-Bold-73" transform="translate(706.445312 0)"/>
    <use xlink:href="#DejaVuSans-Bold-20" transform="translate(765.966797 0)"/>
    <use xlink:href="#DejaVuSans-Bold-46" transform="translate(800.78125 0)"/>
    <use xlink:href="#DejaVuSans-Bold-6f" transform="translate(865.091797 0)"/>
    <use xlink:href="#DejaVuSans-Bold-75" transform="translate(933.792969 0)"/>
    <use xlink:href="#DejaVuSans-Bold-72" transform="translate(1004.984375 0)"/>
    <use xlink:href="#DejaVuSans-Bold-69" transform="translate(1054.300781 0)"/>
    <use xlink:href="#DejaVuSans-Bold-65" transform="translate(1088.578125 0)"/>
    <use xlink:href="#DejaVuSans-Bold-72" transform="translate(1156.400391 0)"/>
   </g>
  </g>
  <g id="text_42">
   <!-- Deterministic validation case; directional runtime signal only. -->
   <g style="fill: #a8b5c7" transform="translate(309.53875 350.41625) scale(0.08 -0.08)">
    <defs>
     <path id="DejaVuSans-44" d="M 1259 4147 
L 1259 519 
L 2022 519 
Q 2988 519 3436 956 
Q 3884 1394 3884 2338 
Q 3884 3275 3436 3711 
Q 2988 4147 2022 4147 
L 1259 4147 
z
M 628 4666 
L 1925 4666 
Q 3281 4666 3915 4102 
Q 4550 3538 4550 2338 
Q 4550 1131 3912 565 
Q 3275 0 1925 0 
L 628 0 
L 628 4666 
z
" transform="scale(0.015625)"/>
     <path id="DejaVuSans-76" d="M 191 3500 
L 800 3500 
L 1894 563 
L 2988 3500 
L 3597 3500 
L 2284 0 
L 1503 0 
L 191 3500 
z
" transform="scale(0.015625)"/>
     <path id="DejaVuSans-3b" d="M 750 3309 
L 1409 3309 
L 1409 2516 
L 750 2516 
L 750 3309 
z
M 750 794 
L 1409 794 
L 1409 256 
L 897 -744 
L 494 -744 
L 750 256 
L 750 794 
z
" transform="scale(0.015625)"/>
     <path id="DejaVuSans-67" d="M 2906 1791 
Q 2906 2416 2648 2759 
Q 2391 3103 1925 3103 
Q 1463 3103 1205 2759 
Q 947 2416 947 1791 
Q 947 1169 1205 825 
Q 1463 481 1925 481 
Q 2391 481 2648 825 
Q 2906 1169 2906 1791 
z
M 3481 434 
Q 3481 -459 3084 -895 
Q 2688 -1331 1869 -1331 
Q 1566 -1331 1297 -1286 
Q 1028 -1241 775 -1147 
L 775 -588 
Q 1028 -725 1275 -790 
Q 1522 -856 1778 -856 
Q 2344 -856 2625 -561 
Q 2906 -266 2906 331 
L 2906 616 
Q 2728 306 2450 153 
Q 2172 0 1784 0 
Q 1141 0 747 490 
Q 353 981 353 1791 
Q 353 2603 747 3093 
Q 1141 3584 1784 3584 
Q 2172 3584 2450 3431 
Q 2728 3278 2906 2969 
L 2906 3500 
L 3481 3500 
L 3481 434 
z
" transform="scale(0.015625)"/>
     <path id="DejaVuSans-79" d="M 2059 -325 
Q 1816 -950 1584 -1140 
Q 1353 -1331 966 -1331 
L 506 -1331 
L 506 -850 
L 844 -850 
Q 1081 -850 1212 -737 
Q 1344 -625 1503 -206 
L 1606 56 
L 191 3500 
L 800 3500 
L 1894 763 
L 2988 3500 
L 3597 3500 
L 2059 -325 
z
" transform="scale(0.015625)"/>
    </defs>
    <use xlink:href="#DejaVuSans-44"/>
    <use xlink:href="#DejaVuSans-65" transform="translate(77.001953 0)"/>
    <use xlink:href="#DejaVuSans-74" transform="translate(138.525391 0)"/>
    <use xlink:href="#DejaVuSans-65" transform="translate(177.734375 0)"/>
    <use xlink:href="#DejaVuSans-72" transform="translate(239.257812 0)"/>
    <use xlink:href="#DejaVuSans-6d" transform="translate(278.621094 0)"/>
    <use xlink:href="#DejaVuSans-69" transform="translate(376.033203 0)"/>
    <use xlink:href="#DejaVuSans-6e" transform="translate(403.816406 0)"/>
    <use xlink:href="#DejaVuSans-69" transform="translate(467.195312 0)"/>
    <use xlink:href="#DejaVuSans-73" transform="translate(494.978516 0)"/>
    <use xlink:href="#DejaVuSans-74" transform="translate(547.078125 0)"/>
    <use xlink:href="#DejaVuSans-69" transform="translate(586.287109 0)"/>
    <use xlink:href="#DejaVuSans-63" transform="translate(614.070312 0)"/>
    <use xlink:href="#DejaVuSans-20" transform="translate(669.050781 0)"/>
    <use xlink:href="#DejaVuSans-76" transform="translate(700.837891 0)"/>
    <use xlink:href="#DejaVuSans-61" transform="translate(760.017578 0)"/>
    <use xlink:href="#DejaVuSans-6c" transform="translate(821.296875 0)"/>
    <use xlink:href="#DejaVuSans-69" transform="translate(849.080078 0)"/>
    <use xlink:href="#DejaVuSans-64" transform="translate(876.863281 0)"/>
    <use xlink:href="#DejaVuSans-61" transform="translate(940.339844 0)"/>
    <use xlink:href="#DejaVuSans-74" transform="translate(1001.619141 0)"/>
    <use xlink:href="#DejaVuSans-69" transform="translate(1040.828125 0)"/>
    <use xlink:href="#DejaVuSans-6f" transform="translate(1068.611328 0)"/>
    <use xlink:href="#DejaVuSans-6e" transform="translate(1129.792969 0)"/>
    <use xlink:href="#DejaVuSans-20" transform="translate(1193.171875 0)"/>
    <use xlink:href="#DejaVuSans-63" transform="translate(1224.958984 0)"/>
    <use xlink:href="#DejaVuSans-61" transform="translate(1279.939453 0)"/>
    <use xlink:href="#DejaVuSans-73" transform="translate(1341.21875 0)"/>
    <use xlink:href="#DejaVuSans-65" transform="translate(1393.318359 0)"/>
    <use xlink:href="#DejaVuSans-3b" transform="translate(1454.841797 0)"/>
    <use xlink:href="#DejaVuSans-20" transform="translate(1488.533203 0)"/>
    <use xlink:href="#DejaVuSans-64" transform="translate(1520.320312 0)"/>
    <use xlink:href="#DejaVuSans-69" transform="translate(1583.796875 0)"/>
    <use xlink:href="#DejaVuSans-72" transform="translate(1611.580078 0)"/>
    <use xlink:href="#DejaVuSans-65" transform="translate(1650.443359 0)"/>
    <use xlink:href="#DejaVuSans-63" transform="translate(1711.966797 0)"/>
    <use xlink:href="#DejaVuSans-74" transform="translate(1766.947266 0)"/>
    <use xlink:href="#DejaVuSans-69" transform="translate(1806.15625 0)"/>
    <use xlink:href="#DejaVuSans-6f" transform="translate(1833.939453 0)"/>
    <use xlink:href="#DejaVuSans-6e" transform="translate(1895.121094 0)"/>
    <use xlink:href="#DejaVuSans-61" transform="translate(1958.5 0)"/>
    <use xlink:href="#DejaVuSans-6c" transform="translate(2019.779297 0)"/>
    <use xlink:href="#DejaVuSans-20" transform="translate(2047.5625 0)"/>
    <use xlink:href="#DejaVuSans-72" transform="translate(2079.349609 0)"/>
    <use xlink:href="#DejaVuSans-75" transform="translate(2120.462891 0)"/>
    <use xlink:href="#DejaVuSans-6e" transform="translate(2183.841797 0)"/>
    <use xlink:href="#DejaVuSans-74" transform="translate(2247.220703 0)"/>
    <use xlink:href="#DejaVuSans-69" transform="translate(2286.429688 0)"/>
    <use xlink:href="#DejaVuSans-6d" transform="translate(2314.212891 0)"/>
    <use xlink:href="#DejaVuSans-65" transform="translate(2411.625 0)"/>
    <use xlink:href="#DejaVuSans-20" transform="translate(2473.148438 0)"/>
    <use xlink:href="#DejaVuSans-73" transform="translate(2504.935547 0)"/>
    <use xlink:href="#DejaVuSans-69" transform="translate(2557.035156 0)"/>
    <use xlink:href="#DejaVuSans-67" transform="translate(2584.818359 0)"/>
    <use xlink:href="#DejaVuSans-6e" transform="translate(2648.294922 0)"/>
    <use xlink:href="#DejaVuSans-61" transform="translate(2711.673828 0)"/>
    <use xlink:href="#DejaVuSans-6c" transform="translate(2772.953125 0)"/>
    <use xlink:href="#DejaVuSans-20" transform="translate(2800.736328 0)"/>
    <use xlink:href="#DejaVuSans-6f" transform="translate(2832.523438 0)"/>
    <use xlink:href="#DejaVuSans-6e" transform="translate(2893.705078 0)"/>
    <use xlink:href="#DejaVuSans-6c" transform="translate(2957.083984 0)"/>
    <use xlink:href="#DejaVuSans-79" transform="translate(2984.867188 0)"/>
    <use xlink:href="#DejaVuSans-2e" transform="translate(3029.796875 0)"/>
   </g>
  </g>
 </g>
 <defs>
  <clipPath id="p98a7076336">
   <rect x="29.404615" y="23.718365" width="398.275385" height="264.292957"/>
  </clipPath>
  <clipPath id="p13d8f7adcd">
   <rect x="462.724375" y="23.718365" width="398.275385" height="264.292957"/>
  </clipPath>
 </defs>
</svg>
